<svg xmlns="http://www.w3.org/2000/svg" class="hide"><symbol id="arrow_both_h" viewBox="0 0 112 40"><title>arrow_both_h</title><path d="M106.18 21.5H5.82l15.745 15.194a1.62 1.62 0 0 1-2.29 2.29L0 20.012 19.275.435a1.62 1.62 0 0 1 2.29 2.29L5.79 18.5h100.42L90.435 2.725a1.62 1.62 0 0 1 2.29-2.29L112 20.012 92.725 38.984a1.62 1.62 0 0 1-2.29-2.29L106.18 21.5z" fill-rule="evenodd" opacity=".75"/></symbol><symbol id="arrow_right" viewBox="0 0 64 64"><title>arrow_right</title><path d="M25.982 18.316a1.179 1.179 0 0 0-1.666 1.666l12.572 12.572-12.572 12.132a1.179 1.179 0 0 0 1.666 1.666L40 32.554 25.982 18.316z" fill-rule="evenodd" opacity=".75"/></symbol><symbol id="cube" viewBox="0 0 64 64"><title>cube</title><path d="M49.501 43.47l-16.5 7.072V28.783l16.5-7.072v21.76zM31.626 26.38l-15.76-6.755 15.76-6.754 15.76 6.754-15.76 6.755zM30.25 50.542l-16.5-7.072V21.711l16.5 7.072v21.759zm21.167-32.18l-19.25-8.25a1.373 1.373 0 0 0-1.084 0l-19.25 8.25A1.371 1.371 0 0 0 11 19.625v24.751c0 .553.326 1.047.833 1.265l19.251 8.25c.348.15.736.15 1.084 0l19.25-8.25c.508-.218.834-.712.834-1.265v-24.75c0-.552-.326-1.047-.834-1.264z" fill-rule="evenodd"/></symbol><symbol id="facebook" viewBox="0 0 64 64"><title>facebook</title><path d="M28.414 50V33.898H23V27.5h5.414v-5.063c0-2.671.75-4.746 2.25-6.222 1.5-1.477 3.492-2.215 5.977-2.215 2.015 0 3.656.094 4.921.281v5.696h-3.375c-1.265 0-2.132.28-2.601.843-.375.469-.563 1.219-.563 2.25v4.43H41l-.844 6.398h-5.133V50h-6.609z" fill-rule="evenodd"/></symbol><symbol id="instagram" viewBox="0 0 64 64"><title>instagram</title><path d="M31.75 23.664c1.453 0 2.8.363 4.043 1.09a8.11 8.11 0 0 1 2.953 2.953 7.868 7.868 0 0 1 1.09 4.043c0 1.453-.363 2.8-1.09 4.043a8.11 8.11 0 0 1-2.953 2.953 7.868 7.868 0 0 1-4.043 1.09c-1.453 0-2.8-.363-4.043-1.09a8.11 8.11 0 0 1-2.953-2.953 7.868 7.868 0 0 1-1.09-4.043c0-1.453.363-2.8 1.09-4.043a8.11 8.11 0 0 1 2.953-2.953 7.868 7.868 0 0 1 4.043-1.09zm0 13.36c1.453 0 2.695-.516 3.727-1.547 1.03-1.032 1.546-2.274 1.546-3.727 0-1.453-.515-2.695-1.546-3.727-1.032-1.03-2.274-1.546-3.727-1.546-1.453 0-2.695.515-3.727 1.546-1.03 1.032-1.546 2.274-1.546 3.727 0 1.453.515 2.695 1.546 3.727 1.032 1.03 2.274 1.546 3.727 1.546zm10.336-13.712a2.19 2.19 0 0 1-.598 1.336 1.712 1.712 0 0 1-1.3.563c-.516 0-.961-.188-1.336-.563a1.825 1.825 0 0 1-.563-1.336c0-.515.188-.96.563-1.335.375-.375.82-.563 1.335-.563.516 0 .961.188 1.336.563.375.375.563.82.563 1.335zm5.344 1.899c.046 1.312.07 3.492.07 6.539 0 3.047-.035 5.238-.106 6.574-.07 1.336-.27 2.496-.597 3.48a8.195 8.195 0 0 1-1.934 3.06 8.195 8.195 0 0 1-3.058 1.933c-.985.328-2.145.527-3.48.597-1.337.07-3.528.106-6.575.106s-5.238-.035-6.574-.106c-1.336-.07-2.496-.293-3.48-.668a7.495 7.495 0 0 1-3.06-1.863 8.195 8.195 0 0 1-1.933-3.058c-.328-.985-.527-2.145-.598-3.48-.07-1.337-.105-3.528-.105-6.575s.035-5.238.105-6.574c.07-1.336.27-2.496.598-3.48a8.195 8.195 0 0 1 1.934-3.06 8.195 8.195 0 0 1 3.058-1.933c.985-.328 2.145-.527 3.48-.598 1.337-.07 3.528-.105 6.575-.105s5.238.035 6.574.105c1.336.07 2.496.27 3.48.598a8.195 8.195 0 0 1 3.06 1.934 8.195 8.195 0 0 1 1.933 3.058c.328.985.539 2.157.633 3.516zm-3.375 15.82c.28-.797.468-2.062.562-3.797.047-1.03.07-2.484.07-4.359v-2.25c0-1.922-.023-3.375-.07-4.36-.094-1.78-.281-3.046-.562-3.796-.563-1.453-1.57-2.461-3.024-3.024-.75-.28-2.015-.468-3.797-.562-1.03-.047-2.484-.07-4.359-.07h-2.25c-1.875 0-3.328.023-4.36.07-1.734.094-3 .281-3.796.562-1.453.563-2.461 1.57-3.024 3.024-.28.75-.468 2.015-.562 3.797-.047 1.03-.07 2.484-.07 4.359v2.25c0 1.875.023 3.328.07 4.36.094 1.734.281 3 .562 3.796.61 1.453 1.617 2.461 3.024 3.024.797.28 2.062.468 3.797.562 1.03.047 2.484.07 4.359.07h2.25c1.922 0 3.375-.023 4.36-.07 1.78-.094 3.046-.281 3.796-.562 1.453-.61 2.461-1.618 3.024-3.024z" fill-rule="evenodd"/></symbol><symbol id="logo" viewBox="0 0 133 145"><title>logo</title><g fill-rule="evenodd"><path d="M19 137.214c0 4.2-2.872 7.858-9.287 7.785-.603 0-1.205-.036-1.808-.108l1.595-4.78c2.73-.11 4.467-1.232 4.467-2.68 0-1.557-1.098-2.172-5.247-3.44-5.742-1.775-8.045-3.947-8.045-7.677 0-3.332 2.375-7.314 8.754-7.314 1.064 0 2.092.144 3.084.433l-2.906 4.346H9.36c-2.305 0-3.687.941-3.687 2.353 0 1.197.993 1.992 4.82 3.188 4.821 1.485 8.508 3.223 8.508 7.894zm-14.676-.218c.178.725.604 1.522 1.702 2.209l-1.63 4.6C1.95 142.644.39 140.798 0 138.697l4.324-1.702zM22.001 144H39v-4.535H22.001V144zM22 133.785h15.647v-4.535H22v4.535zm0-10.213h16.78V119H22v4.572zM50.42 135.429h-3.552V144H42v-13.107h9.372c2.416 0 3.953-1.536 3.953-3.68 0-2.142-1.537-3.641-3.953-3.641H42V119h9.482c5.71 0 8.895 3.643 8.895 8.214 0 3.357-1.683 6.215-4.868 7.5L61 144h-5.491l-5.09-8.571zM85 119l-9.064 25h-4.872v-.035L79.698 119H85zm-13.65 11.714l-2.508 7.215L62 119h5.302l4.048 11.714zM101.006 136.357c0-1.785-1.186-3.107-3.413-3.107h-4.815v6.214h4.815c2.227 0 3.413-1.322 3.413-3.107m4.994 0c0 4.393-2.874 7.643-8.407 7.643H88v-15.286h9.09c1.868 0 2.658-1.215 2.658-2.572 0-1.356-.79-2.571-2.658-2.571H88V119h8.981c4.815 0 7.653 3.25 7.653 7.142 0 1.821-.897 3.465-2.263 4.68 2.192 1.071 3.629 2.928 3.629 5.535M122.986 132c0 1.347-1.105 2.476-2.468 2.476a2.493 2.493 0 0 1-2.504-2.477 2.493 2.493 0 0 1 2.504-2.475c1.363 0 2.468 1.129 2.468 2.475m5.007 0c0-4.661-2.799-8.157-7.475-8.157-4.712 0-7.51 3.496-7.51 8.157 0 4.662 2.798 8.158 7.51 8.158 4.676 0 7.475-3.496 7.475-8.158m5.007 0c0 7.32-5.08 13.001-12.482 13.001-7.4 0-12.518-5.681-12.518-13 0-7.32 5.117-13 12.518-13 7.401 0 12.482 5.68 12.482 13M72.754 63.859L41.641 83.072c4.321 1.406 15.766 4.317 21.603 4.317 12.537 0 23.343-4.093 23.343-12.532 0-4.86-5.403-8.184-13.833-10.998zM50.06 57.721c-19.886-5.5-33.286-12.02-33.286-23.912C16.773 18.847 39.626 7 65.563 7 85.881 7 105.218 10.97 113 17.747l-10.293 14.328c-9.458-6.3-29.305-8.625-40.328-8.625-10.806 0-19.453 3.836-19.453 9.59 0 8.057 13.185 10.103 30.693 14.706 21.398 5.628 37.428 16.958 37.428 31.152C111.047 95.523 62.715 123.9 7 86.75l43.06-29.028z"/><path d="M67 30c-2.207 0-4 2.243-4 5 0 2.758 1.793 5 4 5 2.206 0 4-2.242 4-5 0-2.757-1.794-5-4-5M85.001 30C82.794 30 81 32.243 81 35c0 2.758 1.794 5 4.001 5C87.207 40 89 37.758 89 35c0-2.757-1.793-5-3.999-5M74 0c-1.65 0-3 1.35-3 3v3c0 1.65 1.35 3 3 3s3-1.35 3-3V3c0-1.65-1.35-3-3-3"/></g></symbol><symbol id="logo_beeat" viewBox="0 0 200 50"><title>logo_beeat</title><g fill-rule="evenodd"><path d="M44.913 7.909v8.597c0 .593.375 1.102 1.126 1.527.751.425 1.957.637 3.617.637h6.73c1.66 0 2.866-.212 3.617-.637.75-.425 1.127-.934 1.127-1.527v-6.433c0-.613-.376-1.127-1.127-1.542-.751-.415-1.957-.622-3.617-.622H44.913zm0-2.995h11.592c5.593 0 8.39 1.72 8.39 5.159v6.433c0 3.44-2.797 5.159-8.39 5.159h-6.967c-5.594 0-8.39-1.72-8.39-5.159V1.446c0-.574.152-.95.459-1.127.306-.178.775-.267 1.408-.267.633 0 1.107.089 1.423.267.316.178.475.553.475 1.126v3.47zM70.913 12.06H87.01v-1.987c0-.692-.37-1.226-1.112-1.601-.74-.375-1.952-.564-3.631-.564h-6.612c-1.66 0-2.866.208-3.617.623-.751.415-1.126.93-1.126 1.542v1.986zm0 2.934v1.512c0 .593.375 1.102 1.126 1.527.751.425 1.957.637 3.617.637h3.41c.454 0 .746.124.874.371.129.247.193.618.193 1.112 0 .494-.064.87-.193 1.126-.128.257-.42.386-.874.386h-3.528c-5.594 0-8.39-1.72-8.39-5.159v-6.433c0-3.44 2.796-5.159 8.39-5.159h6.848c2.965 0 5.104.425 6.419 1.275 1.314.85 1.971 2.145 1.971 3.884v3.41c0 .573-.109.968-.326 1.185-.218.218-.702.326-1.452.326H70.913zM96.557 12.06h16.099v-1.987c0-.692-.371-1.226-1.112-1.601-.741-.375-1.952-.564-3.632-.564h-6.611c-1.66 0-2.866.208-3.617.623-.752.415-1.127.93-1.127 1.542v1.986zm0 2.934v1.512c0 .593.375 1.102 1.127 1.527.75.425 1.957.637 3.617.637h3.41c.454 0 .745.124.874.371.128.247.192.618.192 1.112 0 .494-.064.87-.192 1.126-.129.257-.42.386-.875.386h-3.528c-5.593 0-8.39-1.72-8.39-5.159v-6.433c0-3.44 2.797-5.159 8.39-5.159h6.849c2.964 0 5.104.425 6.418 1.275 1.314.85 1.972 2.145 1.972 3.884v3.41c0 .573-.11.968-.326 1.185-.218.218-.702.326-1.453.326H96.557zM134.594 18.67c1.66 0 2.866-.212 3.617-.637.751-.425 1.127-.934 1.127-1.527v-3.854h-12.57c-1.66 0-2.867.208-3.618.623-.751.415-1.126.929-1.126 1.541v1.69c0 .593.375 1.102 1.126 1.527.751.425 1.957.637 3.617.637h7.827zm-7.945 2.995c-5.594 0-8.39-1.72-8.39-5.159v-1.571c0-3.44 2.796-5.159 8.39-5.159h12.689v-.03c0-.572-.37-1.022-1.112-1.348-.741-.326-1.952-.49-3.632-.49h-2.787c-.455 0-.751-.123-.89-.37-.138-.247-.207-.618-.207-1.112 0-.514.07-.894.208-1.141.138-.247.434-.37.89-.37h2.905c5.593 0 8.39 1.719 8.39 5.158v6.433c0 3.44-2.797 5.159-8.39 5.159h-8.064zM147.342 4.914V1.445c0-.573.153-.948.46-1.126.306-.178.775-.267 1.408-.267.632 0 1.106.089 1.423.267.316.178.474.553.474 1.126v3.47h6.256c.454 0 .746.128.874.385.129.257.193.632.193 1.126 0 .494-.064.865-.193 1.112-.128.247-.42.37-.874.37h-6.256V20.39c0 .573-.158.949-.474 1.127-.317.177-.79.266-1.423.266s-1.102-.089-1.408-.266c-.307-.178-.46-.554-.46-1.127V7.909h-1.69c-.455 0-.746-.124-.874-.371-.13-.247-.193-.618-.193-1.112 0-.494.064-.87.193-1.126.128-.257.42-.386.874-.386h1.69z"/><g><path d="M6.573 42.35C3.524 42.35 2 41.392 2 39.476v-.602C2 36.958 3.524 36 6.573 36h1.545c.247 0 .41.07.487.209.077.139.116.347.116.625s-.039.487-.116.626c-.077.14-.24.209-.487.209H6.527c-.907 0-1.548.115-1.924.347-.376.232-.564.518-.564.858v.602c0 .33.188.613.564.85.376.237 1.017.355 1.924.355h3.646c3.049 0 4.573.958 4.573 2.874v.772c0 1.916-1.524 2.874-4.573 2.874h-7.57c-.248 0-.41-.07-.487-.209-.077-.139-.116-.347-.116-.625s.039-.487.116-.626c.077-.139.24-.209.487-.209h7.616c.906 0 1.548-.115 1.924-.347.376-.232.564-.518.564-.858v-.772c0-.33-.188-.613-.564-.85-.376-.237-1.018-.355-1.924-.355H6.573zM27.258 38.47c.33 0 .574.047.734.14.16.092.24.288.24.587v5.376c0 1.792-1.458 2.688-4.373 2.688h-3.693c-2.915 0-4.372-.896-4.372-2.688v-5.376c0-.299.082-.495.247-.587.165-.093.412-.14.742-.14s.574.047.734.14c.16.092.24.288.24.587v5.376c0 .32.195.587.586.804.392.216 1.02.324 1.885.324h3.57c.864 0 1.492-.108 1.884-.324.391-.217.587-.484.587-.804v-5.376c0-.299.082-.495.247-.587.165-.093.412-.14.742-.14zM29.382 40.788c0-.72.31-1.287.927-1.7.618-.411 1.535-.617 2.75-.617h2.117c.237 0 .391.064.463.193.072.129.109.327.109.595 0 .257-.037.45-.109.579-.072.129-.226.193-.463.193h-2.132c-.587 0-1.02.07-1.298.209-.278.139-.417.327-.417.563v.402c0 .237.144.428.433.572.288.144.741.216 1.36.216h3.414c1.441 0 2.482.206 3.12.618.639.412.958.989.958 1.73v.495c0 .37-.082.703-.247.996-.165.294-.422.541-.772.742-.35.2-.804.355-1.36.463-.556.109-1.22.163-1.993.163h-6.257c-.237 0-.392-.065-.464-.193-.072-.13-.108-.327-.108-.595 0-.258.036-.45.108-.58.072-.128.227-.193.464-.193h6.55c.412 0 .755-.018 1.028-.054a2.6 2.6 0 0 0 .649-.154c.16-.067.27-.147.332-.24a.57.57 0 0 0 .093-.324v-.556a.57.57 0 0 0-.093-.325.768.768 0 0 0-.324-.247 2.239 2.239 0 0 0-.626-.162 7.573 7.573 0 0 0-.997-.054h-3.46c-1.247 0-2.184-.204-2.812-.61-.629-.407-.943-.966-.943-1.677v-.448zM42.915 47.325c-.33 0-.575-.047-.734-.14-.16-.092-.24-.288-.24-.587v-9.872c0-.298.08-.494.24-.587.16-.093.404-.139.734-.139.329 0 .576.046.741.14.165.092.247.288.247.586v1.808h5.933c2.915 0 4.372.896 4.372 2.688v5.376c0 .3-.082.495-.247.588-.165.092-.412.139-.742.139s-.574-.047-.733-.14c-.16-.092-.24-.288-.24-.587v-5.376c0-.32-.196-.587-.587-.803-.391-.217-1.02-.325-1.885-.325h-5.87v6.504c0 .3-.083.495-.248.588-.165.092-.412.139-.741.139zM55.324 36.958c0-.33.095-.572.285-.726.19-.155.502-.232.935-.232.433 0 .744.077.935.232.19.154.286.396.286.726 0 .33-.096.572-.286.726-.19.155-.502.232-.935.232-.433 0-.744-.077-.935-.232-.19-.154-.285-.396-.285-.726zm2.209 9.64c0 .3-.083.495-.247.588-.165.092-.412.139-.742.139s-.574-.047-.734-.14c-.16-.092-.24-.288-.24-.586v-7.293c0-.298.08-.494.24-.587.16-.093.404-.139.734-.139.33 0 .577.046.742.14.164.092.247.288.247.586V46.6zM66.484 40.743h7.354c.463 0 .85-.02 1.158-.062.31-.04.559-.116.75-.224a.885.885 0 0 0 .401-.463c.078-.201.116-.466.116-.796 0-.268-.03-.5-.092-.695a.924.924 0 0 0-.348-.48c-.17-.123-.41-.213-.719-.27a6.826 6.826 0 0 0-1.19-.084h-7.43v3.074zm9.795 3.322c0-.299-.031-.551-.093-.757a.958.958 0 0 0-.37-.51c-.186-.134-.447-.23-.781-.286a8.132 8.132 0 0 0-1.306-.085h-7.292v3.105h7.509c.504 0 .911-.028 1.22-.085.31-.056.546-.144.71-.262a.82.82 0 0 0 .325-.456c.052-.185.078-.407.078-.664zm2.1-.062c0 .66-.13 1.197-.393 1.614a2.778 2.778 0 0 1-1.028.974c-.422.231-.909.391-1.46.479-.55.087-1.11.131-1.676.131h-8.729c-.474 0-.71-.242-.71-.726V36.71c0-.474.236-.711.71-.711h8.606c.669 0 1.282.046 1.838.139.556.093 1.035.26 1.437.502.402.242.713.57.935.981.22.412.332.943.332 1.592 0 .546-.1 1.02-.302 1.42-.2.403-.574.737-1.12 1.005.474.175.852.44 1.136.796.283.355.425.878.425 1.568zM90.875 38.47c.33 0 .574.047.734.14.16.092.24.288.24.587v5.376c0 1.792-1.458 2.688-4.373 2.688h-3.692c-2.915 0-4.372-.896-4.372-2.688v-5.376c0-.299.082-.495.247-.587.165-.093.412-.14.742-.14.329 0 .574.047.733.14.16.092.24.288.24.587v5.376c0 .32.195.587.587.804.391.216 1.02.324 1.885.324h3.569c.865 0 1.493-.108 1.885-.324.39-.217.587-.484.587-.804v-5.376c0-.299.082-.495.247-.587.165-.093.412-.14.741-.14zM98.412 38.47c.237 0 .389.068.456.201.067.134.1.33.1.588 0 .257-.033.45-.1.579-.067.129-.219.193-.456.193h-1.205c-.762 0-1.292.098-1.591.294a.927.927 0 0 0-.448.818v5.392c0 .3-.083.495-.247.587-.165.093-.412.14-.742.14s-.574-.047-.734-.14c-.16-.092-.24-.288-.24-.587v-5.392c0-.896.343-1.565 1.028-2.008.685-.443 1.677-.664 2.974-.664h1.205zM105 38.47c.237 0 .39.068.456.201.067.134.1.33.1.588 0 .257-.033.45-.1.579-.067.129-.219.193-.455.193h-1.205c-.763 0-1.293.098-1.592.294a.927.927 0 0 0-.448.818v5.392c0 .3-.082.495-.247.587-.165.093-.412.14-.742.14s-.574-.047-.733-.14c-.16-.092-.24-.288-.24-.587v-5.392c0-.896.342-1.565 1.027-2.008.685-.443 1.677-.664 2.975-.664H105zM106.382 36.958c0-.33.095-.572.286-.726.19-.155.502-.232.935-.232.432 0 .744.077.935.232.19.154.285.396.285.726 0 .33-.095.572-.285.726-.191.155-.503.232-.935.232-.433 0-.744-.077-.935-.232-.19-.154-.286-.396-.286-.726zm2.21 9.64c0 .3-.083.495-.248.588-.164.092-.412.139-.741.139-.33 0-.574-.047-.734-.14-.16-.092-.24-.288-.24-.586v-7.293c0-.298.08-.494.24-.587.16-.093.404-.139.734-.139.33 0 .577.046.741.14.165.092.248.288.248.586V46.6zM111.113 38.534v-1.808c0-.298.08-.494.24-.587.16-.093.404-.139.734-.139.33 0 .576.046.741.14.165.092.247.288.247.586v1.808h3.26c.237 0 .389.067.456.2.067.135.1.33.1.588 0 .257-.033.45-.1.579-.067.129-.219.193-.456.193h-3.26v6.504c0 .3-.082.495-.247.588-.165.092-.412.139-.741.139-.33 0-.575-.047-.734-.14-.16-.092-.24-.288-.24-.587v-6.504h-.88c-.237 0-.39-.064-.456-.193-.067-.129-.1-.322-.1-.58 0-.257.033-.452.1-.586.067-.134.219-.201.456-.201h.88zM127.65 41.159c0-.32-.195-.587-.587-.804-.391-.216-1.02-.324-1.884-.324h-3.245c-.865 0-1.493.108-1.885.324-.391.217-.587.485-.587.804v3.352c0 .31.196.575.587.796.392.222 1.02.332 1.885.332h3.245c.865 0 1.493-.11 1.884-.332.392-.221.587-.487.587-.796V41.16zm-10.15 0c0-1.792 1.457-2.688 4.372-2.688h3.368c2.915 0 4.373.896 4.373 2.688v3.352c0 1.793-1.458 2.689-4.373 2.689h-3.368c-2.915 0-4.372-.896-4.372-2.689V41.16zM143.131 37.669v8.868c0 .299-.087.494-.262.587-.176.092-.433.139-.773.139-.33 0-.582-.047-.757-.14-.175-.092-.263-.287-.263-.586v-8.868h-4.65c-.247 0-.41-.07-.487-.209-.077-.14-.115-.348-.115-.626s.038-.486.115-.625c.078-.14.24-.209.487-.209h11.371c.247 0 .41.07.487.209.077.139.116.347.116.625s-.04.487-.116.626c-.078.139-.24.209-.487.209h-4.666zM159.356 41.159c0-.32-.195-.587-.587-.804-.391-.216-1.02-.324-1.885-.324h-3.244c-.865 0-1.494.108-1.885.324-.391.217-.587.485-.587.804v3.352c0 .31.196.575.587.796.391.222 1.02.332 1.885.332h3.244c.866 0 1.494-.11 1.885-.332.392-.221.587-.487.587-.796V41.16zm-10.15 0c0-1.792 1.457-2.688 4.372-2.688h3.368c2.915 0 4.372.896 4.372 2.688v3.352c0 1.793-1.457 2.689-4.372 2.689h-3.368c-2.915 0-4.372-.896-4.372-2.689V41.16zM164.55 41.979l6.335-3.337c.133-.072.286-.118.456-.14.17-.02.414-.03.733-.03a.99.99 0 0 1 .533.139c.15.093.224.237.224.433a.46.46 0 0 1-.123.34 1.175 1.175 0 0 1-.31.216l-6.21 3.26 6.319 3.198c.299.154.448.37.448.649 0 .226-.09.386-.27.479-.18.092-.451.139-.811.139-.33 0-.59-.026-.78-.078a1.613 1.613 0 0 1-.41-.154l-6.134-3.245v2.75c0 .3-.082.495-.247.588-.165.092-.412.139-.741.139-.33 0-.575-.047-.734-.14-.16-.092-.24-.288-.24-.587v-9.872c0-.298.08-.494.24-.587.16-.093.404-.139.734-.139.33 0 .576.046.741.14.165.092.247.288.247.586v5.253zM184.155 45.485v-6.288c0-.299.08-.495.24-.587.159-.093.404-.14.733-.14.33 0 .577.047.742.14.164.092.247.288.247.587v7.925c0 .897-.343 1.566-1.027 2.009-.685.443-1.677.664-2.974.664h-2.133c-.237 0-.388-.067-.455-.2-.067-.135-.1-.33-.1-.588 0-.257.033-.45.1-.579.067-.129.218-.193.455-.193h2.133c.762 0 1.292-.096 1.59-.286a.922.922 0 0 0 .449-.827v-.077h-5.871c-2.915 0-4.372-.896-4.372-2.688v-5.16c0-.299.08-.495.24-.587.159-.093.403-.14.733-.14.33 0 .577.047.742.14.164.092.247.288.247.587v5.175c0 .32.195.585.587.796.391.211 1.02.317 1.885.317h5.809zM197.65 41.159c0-.32-.195-.587-.587-.804-.391-.216-1.02-.324-1.884-.324h-3.245c-.865 0-1.493.108-1.885.324-.391.217-.587.485-.587.804v3.352c0 .31.196.575.587.796.392.222 1.02.332 1.885.332h3.245c.865 0 1.493-.11 1.884-.332.392-.221.587-.487.587-.796V41.16zm-10.15 0c0-1.792 1.457-2.688 4.372-2.688h3.368c2.915 0 4.373.896 4.373 2.688v3.352c0 1.793-1.458 2.689-4.373 2.689h-3.368c-2.915 0-4.372-.896-4.372-2.689V41.16z"/></g></g></symbol><symbol id="logo_icon" viewBox="0 0 106 105"><title>logo_icon</title><g fill-rule="evenodd"><path d="M65.754 63.859L34.641 83.072c4.321 1.406 15.766 4.317 21.603 4.317 12.537 0 23.343-4.093 23.343-12.532 0-4.86-5.403-8.184-13.833-10.998zM43.06 57.721C23.173 52.22 9.773 45.7 9.773 33.809 9.773 18.847 32.626 7 58.563 7 78.881 7 98.218 10.97 106 17.747L95.707 32.075c-9.458-6.3-29.305-8.625-40.328-8.625-10.806 0-19.453 3.836-19.453 9.59 0 8.057 13.185 10.103 30.693 14.706 21.398 5.628 37.428 16.958 37.428 31.152C104.047 95.523 55.715 123.9 0 86.75l43.06-29.028z"/><path d="M60 30c-2.207 0-4 2.243-4 5 0 2.758 1.793 5 4 5 2.206 0 4-2.242 4-5 0-2.757-1.794-5-4-5M78.001 30C75.794 30 74 32.243 74 35c0 2.758 1.794 5 4.001 5C80.207 40 82 37.758 82 35c0-2.757-1.793-5-3.999-5M67 0c-1.65 0-3 1.35-3 3v3c0 1.65 1.35 3 3 3s3-1.35 3-3V3c0-1.65-1.35-3-3-3"/></g></symbol><symbol id="logo_text" viewBox="0 0 133 26"><title>logo_text</title><g fill-rule="evenodd"><path d="M19 18.214c0 4.2-2.872 7.858-9.287 7.785-.603 0-1.205-.036-1.808-.108l1.595-4.78c2.73-.11 4.467-1.232 4.467-2.68 0-1.557-1.098-2.172-5.247-3.44C2.978 13.215.675 11.043.675 7.313.675 3.982 3.05 0 9.429 0c1.064 0 2.092.144 3.084.433L9.607 4.78H9.36c-2.305 0-3.687.941-3.687 2.353 0 1.197.993 1.992 4.82 3.188C15.314 11.805 19 13.543 19 18.214zm-14.676-.218c.178.725.604 1.522 1.702 2.209l-1.63 4.6C1.95 23.644.39 21.798 0 19.697l4.324-1.702zM22.001 25H39v-4.535H22.001V25zM22 14.785h15.647V10.25H22v4.535zm0-10.213h16.78V0H22v4.572zM50.42 16.429h-3.552V25H42V11.893h9.372c2.416 0 3.953-1.536 3.953-3.68 0-2.142-1.537-3.641-3.953-3.641H42V0h9.482c5.71 0 8.895 3.643 8.895 8.214 0 3.357-1.683 6.215-4.868 7.5L61 25h-5.491l-5.09-8.571zM85 0l-9.064 25h-4.872v-.035L79.698 0H85zM71.35 11.714l-2.508 7.215L62 0h5.302l4.048 11.714zM101.006 17.357c0-1.785-1.186-3.107-3.413-3.107h-4.815v6.214h4.815c2.227 0 3.413-1.322 3.413-3.107m4.994 0C106 21.75 103.126 25 97.593 25H88V9.714h9.09c1.868 0 2.658-1.215 2.658-2.572 0-1.356-.79-2.571-2.658-2.571H88V0h8.981c4.815 0 7.653 3.25 7.653 7.142 0 1.821-.897 3.465-2.263 4.68 2.192 1.071 3.629 2.928 3.629 5.535M122.986 13c0 1.347-1.105 2.476-2.468 2.476A2.493 2.493 0 0 1 118.014 13a2.493 2.493 0 0 1 2.504-2.475c1.363 0 2.468 1.129 2.468 2.475m5.007 0c0-4.661-2.799-8.157-7.475-8.157-4.712 0-7.51 3.496-7.51 8.157 0 4.662 2.798 8.158 7.51 8.158 4.676 0 7.475-3.496 7.475-8.158M133 13C133 20.32 127.92 26 120.518 26 113.118 26 108 20.319 108 13c0-7.32 5.117-13 12.518-13C127.919 0 133 5.68 133 13"/></g></symbol><symbol id="pinterest" viewBox="0 0 64 64"><title>pinterest</title><path d="M49.875 32.437c0 3.141-.785 6.047-2.356 8.72a17.62 17.62 0 0 1-6.363 6.362c-2.672 1.57-5.578 2.356-8.719 2.356-1.78 0-3.492-.258-5.132-.774 1.125-1.875 1.828-3.398 2.109-4.57l1.125-4.148c.281.562.797 1.031 1.547 1.406.75.375 1.57.562 2.46.562a7.89 7.89 0 0 0 4.606-1.44c1.383-.962 2.461-2.263 3.235-3.903.773-1.64 1.16-3.434 1.16-5.38 0-1.944-.469-3.69-1.406-5.237-.938-1.547-2.227-2.754-3.868-3.621-1.64-.868-3.468-1.301-5.484-1.301-2.39 0-4.5.492-6.328 1.476-1.64.938-2.918 2.215-3.832 3.832a10.47 10.47 0 0 0-1.371 5.239c0 1.359.34 2.707 1.02 4.043.679 1.335 1.534 2.238 2.566 2.707.328.14.515.07.562-.211l.492-1.97a.488.488 0 0 0-.14-.491c-.375-.469-.68-1.067-.914-1.793a7.173 7.173 0 0 1-.352-2.215 7.53 7.53 0 0 1 .95-3.692c.632-1.148 1.535-2.074 2.706-2.777 1.22-.75 2.625-1.125 4.22-1.125 2.155 0 3.913.668 5.273 2.004 1.359 1.336 2.039 3.035 2.039 5.098 0 2.343-.528 4.265-1.582 5.765-1.055 1.5-2.356 2.25-3.903 2.25-.89 0-1.593-.316-2.11-.949-.515-.633-.679-1.371-.491-2.215.093-.515.304-1.265.633-2.25.515-1.734.773-2.941.773-3.62 0-.68-.188-1.243-.563-1.688-.375-.446-.914-.668-1.617-.668-.89 0-1.64.398-2.25 1.195-.61.797-.914 1.805-.914 3.023 0 1.032.164 1.899.492 2.602l-1.968 8.648c-.282 1.172-.305 2.836-.07 4.993-3.329-1.266-6.012-3.375-8.051-6.329C16.019 39.398 15 36.094 15 32.437c0-3.14.785-6.046 2.355-8.718a17.62 17.62 0 0 1 6.364-6.364C26.39 15.785 29.297 15 32.437 15c3.141 0 6.047.785 8.72 2.355a17.62 17.62 0 0 1 6.362 6.364c1.57 2.672 2.356 5.578 2.356 8.718z" fill-rule="evenodd"/></symbol><symbol id="serving" viewBox="0 0 64 64"><title>serving</title><g fill-rule="evenodd"><path d="M48.25 44.5h-32.5a1.252 1.252 0 0 1-1.25-1.25c.001-.69.56-1.25 1.25-1.25h32.5c.69 0 1.249.56 1.25 1.25a1.252 1.252 0 0 1-1.25 1.25zM32 27c7.416-.004 13.595 5.419 14.788 12.5H17.213C18.404 32.419 24.582 26.996 32 27zm0-7.5a2.51 2.51 0 0 1 2.5 2.5 2.51 2.51 0 0 1-2.5 2.5 2.51 2.51 0 0 1-2.5-2.5 2.51 2.51 0 0 1 2.5-2.5zm17.326 20.176c-.967-7.23-6.341-13.056-13.334-14.697A4.96 4.96 0 0 0 37 22a5.005 5.005 0 0 0-5-5 5.005 5.005 0 0 0-5 5 4.96 4.96 0 0 0 1.008 2.979c-6.993 1.641-12.367 7.467-13.334 14.697C13.13 40.141 12 41.555 12 43.25A3.75 3.75 0 0 0 15.75 47h32.5A3.75 3.75 0 0 0 52 43.25c0-1.695-1.131-3.109-2.674-3.574z"/><path d="M32 29.5a1.25 1.25 0 0 0 0 2.5c3.417-.001 6.492 1.76 8.304 4.449a1.25 1.25 0 1 0 2.073-1.398c-2.256-3.35-6.09-5.55-10.377-5.551"/></g></symbol><symbol id="sp_check" viewBox="0 0 64 64"><title>sp_check</title><g fill-rule="evenodd"><path d="M41 12.445c1.018 0 1.884.356 2.597 1.069.713.713 1.07 1.579 1.07 2.597V47.89c0 1.018-.357 1.884-1.07 2.597-.713.713-1.579 1.07-2.597 1.07H23.889c-1.019 0-1.884-.357-2.597-1.07-.713-.713-1.07-1.579-1.07-2.597V16.11c0-1.018.357-1.884 1.07-2.597.713-.713 1.578-1.07 2.597-1.07H41zM32.444 49.11c.662 0 1.235-.242 1.72-.726.483-.483.725-1.056.725-1.718 0-.662-.242-1.235-.726-1.72-.484-.483-1.057-.725-1.719-.725-.662 0-1.235.242-1.718.726-.484.484-.726 1.057-.726 1.719 0 .662.242 1.235.726 1.718.483.484 1.056.726 1.718.726zM41 40.861V17.028a.884.884 0 0 0-.267-.65.884.884 0 0 0-.65-.267H24.806a.884.884 0 0 0-.65.268.884.884 0 0 0-.267.649V40.86c0 .255.089.471.267.65a.884.884 0 0 0 .65.267h15.277c.255 0 .471-.09.65-.268a.884.884 0 0 0 .267-.649z"/><path d="M31.18 34.035l-3.479-3.459a.508.508 0 0 1-.145-.375c0-.152.048-.277.145-.375l.771-.75a.464.464 0 0 1 .365-.166.53.53 0 0 1 .385.166l2.334 2.334 5-5a.53.53 0 0 1 .385-.167c.146 0 .267.056.365.167l.77.75a.508.508 0 0 1 .146.375.508.508 0 0 1-.146.375l-6.145 6.125a.476.476 0 0 1-.375.166.476.476 0 0 1-.375-.166z"/></g></symbol><symbol id="twitter" viewBox="0 0 64 64"><title>twitter</title><path d="M46.273 24.312c.047.188.07.493.07.915 0 3.375-.82 6.632-2.46 9.773-1.688 3.328-4.055 5.977-7.102 7.945-3.328 2.203-7.148 3.305-11.46 3.305-4.126 0-7.9-1.102-11.321-3.305.516.047 1.102.07 1.758.07 3.422 0 6.492-1.054 9.21-3.163-1.64 0-3.081-.481-4.323-1.442-1.243-.96-2.098-2.168-2.567-3.621.469.047.914.07 1.336.07.656 0 1.313-.07 1.969-.21-1.688-.376-3.094-1.243-4.219-2.602-1.125-1.36-1.687-2.906-1.687-4.64v-.141a6.95 6.95 0 0 0 3.304.984 8.19 8.19 0 0 1-2.39-2.672c-.61-1.078-.914-2.262-.914-3.55 0-1.29.351-2.52 1.054-3.692a20.358 20.358 0 0 0 6.715 5.484 20.437 20.437 0 0 0 8.473 2.25 10.248 10.248 0 0 1-.14-1.687 7.32 7.32 0 0 1 .983-3.692 7.226 7.226 0 0 1 2.672-2.707A7.13 7.13 0 0 1 38.891 17c1.078 0 2.074.21 2.988.633a8.35 8.35 0 0 1 2.426 1.687 15.02 15.02 0 0 0 4.71-1.758c-.562 1.735-1.64 3.094-3.234 4.079A15.86 15.86 0 0 0 50 20.445a16.229 16.229 0 0 1-3.727 3.867z" fill-rule="evenodd"/></symbol></svg>