<?xml version="1.0" encoding="UTF-8"?>
<svg width="112px" height="40px" viewBox="0 0 112 40" version="1.1" xmlns="http://www.w3.org/2000/svg" xmlns:xlink="http://www.w3.org/1999/xlink">
    <!-- Generator: Sketch 52.2 (67145) - http://www.bohemiancoding.com/sketch -->
    <title>arrow_both_h</title>
    <desc>Created with Sketch.</desc>
    <g id="arrow_both_h" stroke="none" stroke-width="1" fill="none" fill-rule="evenodd" opacity="0.75">
        <path d="M106.179638,21.5 L5.82036249,21.5 L21.5650422,36.6936159 C22.1600448,37.3321611 22.1424881,38.3272213 21.5253301,38.9443793 C20.9081722,39.5615372 19.9131119,39.5790939 19.2745668,38.9840914 L0,20.0120402 L19.2745668,0.434957783 C19.9131119,-0.160044767 20.9081722,-0.14248809 21.5253301,0.474669875 C22.1424881,1.09182784 22.1600448,2.08688809 21.5650422,2.72543321 L5.79047543,18.5 L106.209525,18.5 L90.4349578,2.72543321 C89.8399552,2.08688809 89.8575119,1.09182784 90.4746699,0.474669875 C91.0918278,-0.14248809 92.0868881,-0.160044767 92.7254332,0.434957783 L112,20.0120402 L92.7254332,38.9840914 C92.0868881,39.5790939 91.0918278,39.5615372 90.4746699,38.9443793 C89.8575119,38.3272213 89.8399552,37.3321611 90.4349578,36.6936159 L106.179638,21.5 Z" id="Path" fill="#000000"></path>
    </g>
</svg>