<?xml version="1.0" encoding="UTF-8"?>
<svg width="64px" height="64px" viewBox="0 0 64 64" version="1.1" xmlns="http://www.w3.org/2000/svg" xmlns:xlink="http://www.w3.org/1999/xlink">
    <!-- Generator: Sketch 52.2 (67145) - http://www.bohemiancoding.com/sketch -->
    <title>cube</title>
    <desc>Created with Sketch.</desc>
    <g id="cube" stroke="none" stroke-width="1" fill="none" fill-rule="evenodd">
        <path d="M49.5014218,43.470111 L33.0008125,50.5419972 L33.0008125,28.7831937 L49.5014218,21.7113075 L49.5014218,43.470111 L49.5014218,43.470111 Z M31.6257617,26.3796049 L15.8663047,19.6253555 L31.6257617,12.871106 L47.3852187,19.6253555 L31.6257617,26.3796049 L31.6257617,26.3796049 Z M30.2507109,50.5419972 L13.7501016,43.470111 L13.7501016,21.7113075 L30.2507109,28.7831937 L30.2507109,50.5419972 L30.2507109,50.5419972 Z M51.4182426,18.3616838 L32.1675317,10.1113791 C31.8196439,9.96287363 31.4318795,9.96287363 31.0839917,10.1113791 L11.8332808,18.3616838 C11.325887,18.5789418 11,19.0739601 11,19.6253555 L11,44.3762695 C11,44.9290399 11.325887,45.4226831 11.8332808,45.6413162 L31.0839917,53.8916209 C31.4318795,54.0401264 31.8196439,54.0401264 32.1675317,53.8916209 L51.4182426,45.6413162 C51.9256364,45.4226831 52.2515234,44.9290399 52.2515234,44.3762695 L52.2515234,19.6253555 C52.2515234,19.0739601 51.9256364,18.5789418 51.4182426,18.3616838 L51.4182426,18.3616838 Z" id="Shape" fill="#000000"></path>
    </g>
</svg>