<?xml version="1.0" encoding="UTF-8"?>
<svg width="64px" height="64px" viewBox="0 0 64 64" version="1.1" xmlns="http://www.w3.org/2000/svg" xmlns:xlink="http://www.w3.org/1999/xlink">
    <!-- Generator: Sketch 52.2 (67145) - http://www.bohemiancoding.com/sketch -->
    <title>facebook</title>
    <desc>Created with Sketch.</desc>
    <g id="facebook" stroke="none" stroke-width="1" fill="none" fill-rule="evenodd">
        <path d="M28.4140496,49.9999142 L28.4140496,33.8983901 L23,33.8983901 L23,27.4999678 L28.4140496,27.4999678 L28.4140496,22.4374799 C28.4140496,19.7656113 29.1640482,17.6913974 30.6640442,16.2148385 C32.1640403,14.7382795 34.1562238,14 36.6405925,14 C38.656213,14 40.2968338,14.0937494 41.5624557,14.2812493 L41.5624557,19.9765483 L38.1874638,19.9765483 C36.9218418,19.9765483 36.0546567,20.2577976 35.5859075,20.8202962 C35.2109087,21.2890455 35.0234088,22.039043 35.0234088,23.0702909 L35.0234088,27.4999678 L40.9999571,27.4999678 L40.1562091,33.8983901 L35.0234088,33.8983901 L35.0234088,49.9999142 L28.4140496,49.9999142 Z" id="" fill="#000000"></path>
    </g>
</svg>