<?xml version="1.0" encoding="UTF-8"?>
<svg width="64px" height="64px" viewBox="0 0 64 64" version="1.1" xmlns="http://www.w3.org/2000/svg" xmlns:xlink="http://www.w3.org/1999/xlink">
    <!-- Generator: Sketch 52.2 (67145) - http://www.bohemiancoding.com/sketch -->
    <title>instagram</title>
    <desc>Created with Sketch.</desc>
    <g id="instagram" stroke="none" stroke-width="1" fill="none" fill-rule="evenodd">
        <path d="M31.7499624,23.6640442 C33.2030843,23.6640442 34.5507367,24.027325 35.7929216,24.7538854 C37.0351065,25.4804458 38.0194791,26.4648184 38.7460395,27.7070033 C39.4725999,28.9491882 39.8358807,30.2968406 39.8358807,31.7499624 C39.8358807,33.2030843 39.4725999,34.5507367 38.7460395,35.7929216 C38.0194791,37.0351065 37.0351065,38.0194791 35.7929216,38.7460395 C34.5507367,39.4725999 33.2030843,39.8358807 31.7499624,39.8358807 C30.2968406,39.8358807 28.9491882,39.4725999 27.7070033,38.7460395 C26.4648184,38.0194791 25.4804458,37.0351065 24.7538854,35.7929216 C24.027325,34.5507367 23.6640442,33.2030843 23.6640442,31.7499624 C23.6640442,30.2968406 24.027325,28.9491882 24.7538854,27.7070033 C25.4804458,26.4648184 26.4648184,25.4804458 27.7070033,24.7538854 C28.9491882,24.027325 30.2968406,23.6640442 31.7499624,23.6640442 Z M31.7499624,37.0233874 C33.2030843,37.0233874 34.4452682,36.507764 35.4765161,35.4765161 C36.507764,34.4452682 37.0233874,33.2030843 37.0233874,31.7499624 C37.0233874,30.2968406 36.507764,29.0546567 35.4765161,28.0234088 C34.4452682,26.9921609 33.2030843,26.4765375 31.7499624,26.4765375 C30.2968406,26.4765375 29.0546567,26.9921609 28.0234088,28.0234088 C26.9921609,29.0546567 26.4765375,30.2968406 26.4765375,31.7499624 C26.4765375,33.2030843 26.9921609,34.4452682 28.0234088,35.4765161 C29.0546567,36.507764 30.2968406,37.0233874 31.7499624,37.0233874 Z M42.0858753,23.3124826 C42.0390001,23.828106 41.8397821,24.2734181 41.4882205,24.6484169 C41.1366588,25.0234156 40.7030657,25.2109155 40.1874423,25.2109155 C39.6718189,25.2109155 39.2265068,25.0234156 38.851508,24.6484169 C38.4765093,24.2734181 38.2890094,23.828106 38.2890094,23.3124826 C38.2890094,22.7968592 38.4765093,22.351547 38.851508,21.9765483 C39.2265068,21.6015495 39.6718189,21.4140496 40.1874423,21.4140496 C40.7030657,21.4140496 41.1483779,21.6015495 41.5233766,21.9765483 C41.8983754,22.351547 42.0858753,22.7968592 42.0858753,23.3124826 Z M47.4296126,25.2109155 C47.4764878,26.5234128 47.4999249,28.7030951 47.4999249,31.7499624 C47.4999249,34.7968298 47.4647687,36.9882312 47.3944564,38.3241655 C47.3241441,39.6600998 47.1249261,40.8202533 46.7968016,41.804626 C46.3749276,42.9764985 45.7303975,43.9960274 44.8632124,44.8632124 C43.9960274,45.7303975 42.9764985,46.3749276 41.804626,46.7968016 C40.8202533,47.1249261 39.6600998,47.3241441 38.3241655,47.3944564 C36.9882312,47.4647687 34.7968298,47.4999249 31.7499624,47.4999249 C28.7030951,47.4999249 26.5116937,47.4647687 25.1757594,47.3944564 C23.8398251,47.3241441 22.6796716,47.101488 21.6952989,46.7264892 C20.5234264,46.3514905 19.5038975,45.7303975 18.6367125,44.8632124 C17.7695274,43.9960274 17.1249973,42.9764985 16.7031233,41.804626 C16.3749987,40.8202533 16.1757808,39.6600998 16.1054685,38.3241655 C16.0351562,36.9882312 16,34.7968298 16,31.7499624 C16,28.7030951 16.0351562,26.5116937 16.1054685,25.1757594 C16.1757808,23.8398251 16.3749987,22.6796716 16.7031233,21.6952989 C17.1249973,20.5234264 17.7695274,19.5038975 18.6367125,18.6367125 C19.5038975,17.7695274 20.5234264,17.1249973 21.6952989,16.7031233 C22.6796716,16.3749987 23.8398251,16.1757808 25.1757594,16.1054685 C26.5116937,16.0351562 28.7030951,16 31.7499624,16 C34.7968298,16 36.9882312,16.0351562 38.3241655,16.1054685 C39.6600998,16.1757808 40.8202533,16.3749987 41.804626,16.7031233 C42.9764985,17.1249973 43.9960274,17.7695274 44.8632124,18.6367125 C45.7303975,19.5038975 46.3749276,20.5234264 46.7968016,21.6952989 C47.1249261,22.6796716 47.3358631,23.8515441 47.4296126,25.2109155 Z M44.0546206,41.0311903 C44.3358699,40.2343176 44.5233699,38.9686956 44.6171193,37.2343244 C44.6639945,36.2030765 44.6874316,34.7499557 44.6874316,32.8749598 L44.6874316,30.6249651 C44.6874316,28.7030951 44.6639945,27.2499732 44.6171193,26.2656005 C44.5233699,24.4843551 44.3358699,23.2187331 44.0546206,22.4687346 C43.492122,21.0156127 42.4843122,20.0078029 41.0311903,19.4453043 C40.2811918,19.164055 39.0155698,18.976555 37.2343244,18.8828056 C36.2030765,18.8359304 34.7499557,18.8124933 32.8749598,18.8124933 L30.6249651,18.8124933 C28.7499692,18.8124933 27.2968484,18.8359304 26.2656005,18.8828056 C24.5312293,18.976555 23.2656073,19.164055 22.4687346,19.4453043 C21.0156127,20.0078029 20.0078029,21.0156127 19.4453043,22.4687346 C19.164055,23.2187331 18.976555,24.4843551 18.8828056,26.2656005 C18.8359304,27.2968484 18.8124933,28.7499692 18.8124933,30.6249651 L18.8124933,32.8749598 C18.8124933,34.7499557 18.8359304,36.2030765 18.8828056,37.2343244 C18.976555,38.9686956 19.164055,40.2343176 19.4453043,41.0311903 C20.0546782,42.4843122 21.0624879,43.492122 22.4687346,44.0546206 C23.2656073,44.3358699 24.5312293,44.5233699 26.2656005,44.6171193 C27.2968484,44.6639945 28.7499692,44.6874316 30.6249651,44.6874316 L32.8749598,44.6874316 C34.7968298,44.6874316 36.2499517,44.6639945 37.2343244,44.6171193 C39.0155698,44.5233699 40.2811918,44.3358699 41.0311903,44.0546206 C42.4843122,43.4452467 43.492122,42.437437 44.0546206,41.0311903 Z" id="" fill="#000000"></path>
    </g>
</svg>