<?xml version="1.0" encoding="UTF-8"?>
<svg width="106px" height="105px" viewBox="0 0 106 105" version="1.1" xmlns="http://www.w3.org/2000/svg" xmlns:xlink="http://www.w3.org/1999/xlink">
    <!-- Generator: Sketch 52.2 (67145) - http://www.bohemiancoding.com/sketch -->
    <title>logo_icon</title>
    <desc>Created with Sketch.</desc>
    <g id="logo_icon" stroke="none" stroke-width="1" fill="none" fill-rule="evenodd">
        <path d="M65.754059,63.8590275 L34.640654,83.0716027 C38.962211,84.4784778 50.407467,87.3885618 56.2444272,87.3885618 C68.7808538,87.3885618 79.5872535,83.2963816 79.5872535,74.857138 C79.5872535,69.9972978 74.1835522,66.6727777 65.754059,63.8590275 Z M43.0591152,57.7207572 C23.1733338,52.2217019 9.77339818,45.7011068 9.77339818,33.808898 C9.77339818,18.8470523 32.6257995,7 58.5631647,7 C78.881202,7 98.2183893,10.969756 106,17.7472413 L95.7070923,32.0748893 C86.2486092,25.7750592 66.4019415,23.4500024 55.3789123,23.4500024 C44.5725126,23.4500024 35.9263899,27.2862959 35.9263899,33.0402344 C35.9263899,41.0971532 49.110699,43.1432433 66.6185709,47.7461934 C88.0167468,53.3736938 104.047326,64.7039553 104.047326,78.8981409 C104.047326,95.5227483 55.7148885,123.899078 0,86.7493468 L43.0591152,57.7207572 Z" id="Fill-10" fill="#000000"></path>
        <path d="M60,30 C57.7934587,30 56,32.243487 56,35 C56,37.757515 57.7934587,40 60,40 C62.2055112,40 64,37.757515 64,35 C64,32.243487 62.2055112,30 60,30" id="Fill-11" fill="#000000"></path>
        <path d="M78.0010301,30 C75.7944888,30 74,32.243487 74,35 C74,37.757515 75.7944888,40 78.0010301,40 C80.2065413,40 82,37.757515 82,35 C82,32.243487 80.2065413,30 78.0010301,30" id="Fill-12" fill="#000000"></path>
        <path d="M67,0 C65.3505976,0 64,1.34975097 64,3.00033204 L64,5.99966796 C64,7.65024903 65.3505976,9 67,9 C68.6503984,9 70,7.65024903 70,5.99966796 L70,3.00033204 C70,1.34975097 68.6503984,0 67,0" id="Fill-13" fill="#000000"></path>
    </g>
</svg>