<?xml version="1.0" encoding="UTF-8"?>
<svg width="200px" height="50px" viewBox="0 0 200 50" version="1.1" xmlns="http://www.w3.org/2000/svg" xmlns:xlink="http://www.w3.org/1999/xlink">
    <!-- Generator: Sketch 52.2 (67145) - http://www.bohemiancoding.com/sketch -->
    <title>logo_beeat</title>
    <desc>Created with Sketch.</desc>
    <g id="logo_beeat" stroke="none" stroke-width="1" fill="none" fill-rule="evenodd">
        <g id="Group-4" transform="translate(41.000000, 0.000000)" fill="#130F40">
            <path d="M3.9125714,7.90851926 L3.9125714,16.5061349 C3.9125714,17.0990628 4.28781711,17.6081678 5.03916661,18.0329672 C5.79008707,18.4582492 6.99589308,18.6704076 8.65610196,18.6704076 L15.3860161,18.6704076 C17.046225,18.6704076 18.251602,18.4582492 19.0029515,18.0329672 C19.7538719,17.6081678 20.1295467,17.0990628 20.1295467,16.5061349 L20.1295467,10.0727383 C20.1295467,9.46034289 19.7538719,8.94614311 19.0029515,8.53105067 C18.251602,8.11601185 17.046225,7.90851926 15.3860161,7.90851926 L3.9125714,7.90851926 Z M3.9125714,4.91416895 L15.504591,4.91416895 C21.0977203,4.91416895 23.894714,6.63369207 23.894714,10.0727383 L23.894714,16.5061349 C23.894714,19.9451811 21.0977203,21.6647579 15.504591,21.6647579 L8.5375271,21.6647579 C2.94396874,21.6647579 0.147404072,19.9451811 0.147404072,16.5061349 L0.147404072,1.44541195 C0.147404072,0.872380587 0.300301818,0.496759467 0.606901753,0.318816738 C0.913126281,0.140927638 1.38238453,0.0520099032 2.01515917,0.0520099032 C2.64750478,0.0520099032 3.12185784,0.140927638 3.43821834,0.318816738 C3.75414981,0.496759467 3.9125714,0.872380587 3.9125714,1.44541195 L3.9125714,4.91416895 Z" id="Shape"></path>
            <path d="M29.9127821,12.0590951 L46.0111289,12.0590951 L46.0111289,10.0727651 C46.0111289,9.38110529 45.640549,8.84743799 44.8993891,8.47176324 C44.1581756,8.09651752 42.9472748,7.90849245 41.2675984,7.90849245 L34.6563127,7.90849245 C32.9960502,7.90849245 31.7902442,8.11603867 31.0393773,8.53107748 C30.2880279,8.94611629 29.9127821,9.46031608 29.9127821,10.0727651 L29.9127821,12.0590951 Z M29.9127821,14.9941848 L29.9127821,16.5061617 C29.9127821,17.0990896 30.2880279,17.6081946 31.0393773,18.032994 C31.7902442,18.4582224 32.9960502,18.6703808 34.6563127,18.6703808 L38.0657555,18.6703808 C38.520212,18.6703808 38.8115275,18.7940504 38.9403456,19.0409607 C39.0686274,19.2883537 39.1329828,19.6589336 39.1329828,20.1527542 C39.1329828,20.6470574 39.0686274,21.0227321 38.9403456,21.2793494 C38.8115275,21.5364493 38.520212,21.6647311 38.0657555,21.6647311 L34.5377378,21.6647311 C28.9441258,21.6647311 26.1475612,19.9452079 26.1475612,16.5061617 L26.1475612,10.0727651 C26.1475612,6.63366526 28.9441258,4.91414213 34.5377378,4.91414213 L41.3862268,4.91414213 C44.35092,4.91414213 46.4901477,5.33937055 47.8048217,6.18896932 C49.1189593,7.03905076 49.7762962,8.33372087 49.7762962,10.0727651 L49.7762962,13.4821006 C49.7762962,14.0556683 49.667482,14.4508106 49.4502288,14.6680101 C49.232493,14.8857459 48.7483793,14.9941848 47.9975125,14.9941848 L29.9127821,14.9941848 Z" id="Shape"></path>
            <path d="M55.5571932,12.0590951 L71.6555936,12.0590951 L71.6555936,10.0727651 C71.6555936,9.38110529 71.2850137,8.84743799 70.5438002,8.47176324 C69.8026403,8.09651752 68.5917395,7.90849245 66.9120631,7.90849245 L60.3007238,7.90849245 C58.6405149,7.90849245 57.4347089,8.11603867 56.6837884,8.53107748 C55.9324389,8.94611629 55.5571932,9.46031608 55.5571932,10.0727651 L55.5571932,12.0590951 Z M55.5571932,14.9941848 L55.5571932,16.5061617 C55.5571932,17.0990896 55.9324389,17.6081946 56.6837884,18.032994 C57.4347089,18.4582224 58.6405149,18.6703808 60.3007238,18.6703808 L63.7101665,18.6703808 C64.164623,18.6703808 64.4559922,18.7940504 64.5847567,19.0409607 C64.7130921,19.2883537 64.7774475,19.6589336 64.7774475,20.1527542 C64.7774475,20.6470574 64.7130921,21.0227321 64.5847567,21.2793494 C64.4559922,21.5364493 64.164623,21.6647311 63.7101665,21.6647311 L60.1821489,21.6647311 C54.5885369,21.6647311 51.7920259,19.9452079 51.7920259,16.5061617 L51.7920259,10.0727651 C51.7920259,6.63366526 54.5885369,4.91414213 60.1821489,4.91414213 L67.0306379,4.91414213 C69.9953848,4.91414213 72.1345588,5.33937055 73.4492327,6.18896932 C74.763424,7.03905076 75.420761,8.33372087 75.420761,10.0727651 L75.420761,13.4821006 C75.420761,14.0556683 75.311893,14.4508106 75.0946935,14.6680101 C74.8769041,14.8857459 74.3928441,14.9941848 73.6419772,14.9941848 L55.5571932,14.9941848 Z" id="Shape"></path>
            <path d="M93.5941356,18.6704022 C95.2543981,18.6704022 96.4597214,18.4582438 97.2110709,18.0329618 C97.9619914,17.6081624 98.3376661,17.0990574 98.3376661,16.5061831 L98.3376661,12.6519908 L85.7673369,12.6519908 C84.1070744,12.6519908 82.9012684,12.859537 82.150348,13.2746295 C81.3989985,13.6897219 81.0237528,14.2038681 81.0237528,14.8162635 L81.0237528,16.5061831 C81.0237528,17.0990574 81.3989985,17.6081624 82.150348,18.0329618 C82.9012684,18.4582438 84.1070744,18.6704022 85.7673369,18.6704022 L93.5941356,18.6704022 Z M85.6487085,21.6647525 C80.0551501,21.6647525 77.2585854,19.9452294 77.2585854,16.5061831 L77.2585854,14.9348384 C77.2585854,11.4958458 80.0551501,9.77621537 85.6487085,9.77621537 L98.3376661,9.77621537 L98.3376661,9.74661188 C98.3376661,9.17358052 97.9670862,8.72373615 97.2259263,8.3976687 C96.4847128,8.07154762 95.2738119,7.9085139 93.5941356,7.9085139 L90.8073315,7.9085139 C90.3524459,7.9085139 90.0559283,7.78521964 89.917886,7.53793395 C89.7793609,7.29097004 89.7103934,6.92039009 89.7103934,6.42614049 C89.7103934,5.91236974 89.7793609,5.53208285 89.917886,5.28474353 C90.0559283,5.03783325 90.3524459,4.91416359 90.8073315,4.91416359 L93.7127104,4.91416359 C99.3058397,4.91416359 102.102833,6.63368671 102.102833,10.0727866 L102.102833,16.5061831 C102.102833,19.9452294 99.3058397,21.6647525 93.7127104,21.6647525 L85.6487085,21.6647525 Z" id="Shape"></path>
            <path d="M106.342037,4.91416895 L106.342037,1.44541195 C106.342037,0.872380587 106.494935,0.496759467 106.801589,0.318816738 C107.10776,0.140927638 107.577018,0.0520099032 108.209846,0.0520099032 C108.842138,0.0520099032 109.316491,0.140927638 109.632852,0.318816738 C109.948837,0.496759467 110.107258,0.872380587 110.107258,1.44541195 L110.107258,4.91416895 L116.362819,4.91416895 C116.817222,4.91416895 117.108591,5.04287978 117.237356,5.29955064 C117.365691,5.55665053 117.4301,5.93227165 117.4301,6.42614585 C117.4301,6.92039546 117.365691,7.2909754 117.237356,7.53793932 C117.108591,7.78522501 116.817222,7.90851926 116.362819,7.90851926 L110.107258,7.90851926 L110.107258,20.3899307 C110.107258,20.9634447 109.948837,21.3386368 109.632852,21.5165259 C109.316491,21.694415 108.842138,21.7833327 108.209846,21.7833327 C107.577018,21.7833327 107.10776,21.694415 106.801589,21.5165259 C106.494935,21.3386368 106.342037,20.9634447 106.342037,20.3899307 L106.342037,7.90851926 L104.652171,7.90851926 C104.197286,7.90851926 103.905917,7.78522501 103.777581,7.53793932 C103.648817,7.2909754 103.58489,6.92039546 103.58489,6.42614585 C103.58489,5.93227165 103.648817,5.55665053 103.777581,5.29955064 C103.905917,5.04287978 104.197286,4.91416895 104.652171,4.91416895 L106.342037,4.91416895 Z" id="Fill-10"></path>
        </g>
        <g id="Group-5" transform="translate(2.000000, 36.000000)" fill="#130F40">
            <path d="M4.57312693,6.3498511 C1.52423411,6.3498511 7.5793713e-14,5.39192688 7.59115607e-14,3.47617278 L7.59508432e-14,2.87363114 C7.60686909e-14,0.957877046 1.52423411,7.10542736e-14 4.57312693,7.10542736e-14 L6.11807165,7.10542736e-14 C6.3652779,7.10542736e-14 6.5275188,0.0695385523 6.60474716,0.20856848 C6.68197553,0.347598408 6.72066047,0.556166888 6.72066047,0.83427392 C6.72066047,1.11238095 6.68197553,1.32094943 6.60474716,1.46002654 C6.5275188,1.59905646 6.3652779,1.66854784 6.11807165,1.66854784 L4.52679935,1.66854784 C3.62034498,1.66854784 2.97916556,1.78446115 2.60326109,2.01619342 C2.22716792,2.24797287 2.03935722,2.53372254 2.03935722,2.87363114 L2.03935722,3.47617278 C2.03935722,3.80593838 2.22716792,4.08909332 2.60326109,4.32592068 C2.97916556,4.56298393 3.62034498,4.68125608 4.52679935,4.68125608 L8.17290285,4.68125608 C11.2215598,4.68125608 12.7459826,5.6391803 12.7459826,7.55493439 L12.7459826,8.32740675 C12.7459826,10.2431608 11.2215598,11.2010379 8.17290285,11.2010379 L0.602541648,11.2010379 C0.355382574,11.2010379 0.193141678,11.1314993 0.115913313,10.9924694 C0.0386377709,10.8534395 7.54715961e-14,10.644871 7.54951657e-14,10.366764 C7.55108787e-14,10.0886569 0.0386377709,9.88008846 0.115913313,9.74105853 C0.193141678,9.6020286 0.355382574,9.53249005 0.602541648,9.53249005 L8.21923043,9.53249005 C9.12544892,9.53249005 9.76662834,9.41662391 10.1427687,9.18484446 C10.5185788,8.95311219 10.7066726,8.66726817 10.7066726,8.32740675 L10.7066726,7.55493439 C10.7066726,7.22540469 10.5185788,6.94224974 10.1427687,6.7051865 C9.76662834,6.46835913 9.12544892,6.3498511 8.21923043,6.3498511 L4.57312693,6.3498511 Z" id="Fill-13"></path>
            <path d="M25.2577886,2.47058824 C25.5872711,2.47058824 25.8318355,2.51691582 25.9916704,2.60961816 C26.151175,2.70232051 26.2311396,2.89810408 26.2311396,3.19673301 L26.2311396,8.57318591 C26.2311396,10.365384 24.7735191,11.2614595 21.8588442,11.2614595 L18.1663659,11.2614595 C15.2514079,11.2614595 13.7941176,10.365384 13.7941176,8.57318591 L13.7941176,3.19673301 C13.7941176,2.89810408 13.8764411,2.70232051 14.0412767,2.60961816 C14.2059236,2.51691582 14.4531299,2.47058824 14.7828955,2.47058824 C15.112378,2.47058824 15.3569424,2.51691582 15.5167772,2.60961816 C15.6762819,2.70232051 15.7562465,2.89810408 15.7562465,3.19673301 L15.7562465,8.57318591 C15.7562465,8.89257261 15.951747,9.16030075 16.3433142,9.37660622 C16.7345983,9.59291169 17.3629928,9.70104084 18.2281675,9.70104084 L21.7970898,9.70104084 C22.6622173,9.70104084 23.2903759,9.59291169 23.6819431,9.37660622 C24.0732272,9.16030075 24.2690108,8.89257261 24.2690108,8.57318591 L24.2690108,3.19673301 C24.2690108,2.89810408 24.3513342,2.70232051 24.5161698,2.60961816 C24.6808639,2.51691582 24.928023,2.47058824 25.2577886,2.47058824 Z" id="Fill-16"></path>
            <path d="M27.3823529,4.78805248 C27.3823529,4.06723868 27.6913608,3.50064573 28.309282,3.08860386 C28.9272977,2.6767507 29.8439422,2.47058824 31.0593572,2.47058824 L33.17599,2.47058824 C33.4127702,2.47058824 33.5673212,2.5350317 33.6394545,2.66372991 C33.7113991,2.79261684 33.7476308,2.99080643 33.7476308,3.25853457 C33.7476308,3.51607253 33.7113991,3.70921421 33.6394545,3.83786525 C33.5673212,3.96679935 33.4127702,4.03100693 33.17599,4.03100693 L31.0439304,4.03100693 C30.4568156,4.03100693 30.0242518,4.10054548 29.7461448,4.23957541 C29.4680377,4.37860534 29.3290078,4.5666991 29.3290078,4.80347929 L29.3290078,5.20518944 C29.3290078,5.44225269 29.4730857,5.63270529 29.7616188,5.77683031 C30.0498216,5.92119121 30.5031432,5.99313578 31.1211588,5.99313578 L34.53553,5.99313578 C35.9774407,5.99313578 37.0176412,6.19925107 37.6563674,6.61115141 C38.2949049,7.02319328 38.6142916,7.59992923 38.6142916,8.34145363 L38.6142916,8.83586614 C38.6142916,9.20662834 38.5317323,9.53879994 38.3670854,9.83238095 C38.2022026,10.1259148 37.9446174,10.373121 37.594613,10.5739997 C37.2443255,10.774784 36.7911927,10.9292879 36.2349786,11.0374642 C35.6788117,11.1455934 35.0144685,11.199658 34.2419962,11.199658 L27.9848474,11.199658 C27.7478313,11.199658 27.5933274,11.1354504 27.5213829,11.0065163 C27.4492024,10.8778653 27.4132065,10.6797228 27.4132065,10.4117116 C27.4132065,10.1544096 27.4492024,9.96126788 27.5213829,9.83238095 C27.5933274,9.70368274 27.7478313,9.63923927 27.9848474,9.63923927 L34.53553,9.63923927 C34.9473832,9.63923927 35.2899337,9.62135928 35.5629456,9.5851747 C35.8357688,9.54922601 36.0520743,9.49780333 36.2118148,9.43067079 C36.3714138,9.36382132 36.4822321,9.28390388 36.5439864,9.19120153 C36.6058352,9.09849919 36.6366888,8.99037004 36.6366888,8.86676692 L36.6366888,8.31055285 C36.6366888,8.1869969 36.6058352,8.07882058 36.5439864,7.98611824 C36.4822321,7.89341589 36.3741029,7.81109244 36.2195518,7.73895916 C36.0650951,7.66696742 35.8564794,7.61295002 35.5938936,7.57671827 C35.3312133,7.54076957 34.9990417,7.52265369 34.5973787,7.52265369 L31.1366328,7.52265369 C29.8902698,7.52265369 28.9529146,7.31936901 28.3248032,6.91237506 C27.6964087,6.50561698 27.3823529,5.9468082 27.3823529,5.23609023 L27.3823529,4.78805248 Z" id="Fill-18"></path>
            <path d="M40.9145275,11.324641 C40.5847619,11.324641 40.3402447,11.2783134 40.1806457,11.1856111 C40.020858,11.0929087 39.9411765,10.897361 39.9411765,10.5984962 L39.9411765,0.72619195 C39.9411765,0.427563025 40.020858,0.231779449 40.1806457,0.139077105 C40.3402447,0.0463747604 40.5847619,-1.58983937e-13 40.9145275,-1.58983937e-13 C41.24401,-1.58983937e-13 41.4912635,0.0463747604 41.6561462,0.139077105 C41.820746,0.231779449 41.9033053,0.427563025 41.9033053,0.72619195 L41.9033053,2.53376972 L47.8360195,2.53376972 C50.7506472,2.53376972 52.2082677,3.4298452 52.2082677,5.22204334 L52.2082677,10.5984962 C52.2082677,10.897361 52.1257084,11.0929087 51.9610615,11.1856111 C51.7961787,11.2783134 51.5489724,11.324641 51.2194899,11.324641 C50.8897243,11.324641 50.6452071,11.2783134 50.4856081,11.1856111 C50.3258204,11.0929087 50.2461389,10.897361 50.2461389,10.5984962 L50.2461389,5.22204334 C50.2461389,4.90289253 50.0503553,4.6349285 49.659024,4.41862303 C49.2675041,4.20231756 48.6393454,4.09418841 47.7741707,4.09418841 L41.9033053,4.09418841 L41.9033053,10.5984962 C41.9033053,10.897361 41.820746,11.0929087 41.6561462,11.1856111 C41.4912635,11.2783134 41.24401,11.324641 40.9145275,11.324641 Z" id="Fill-20"></path>
            <path d="M53.3235294,0.957924222 C53.3235294,0.628441692 53.4186378,0.386283355 53.6093734,0.231779449 C53.799826,0.0772755418 54.1114286,-1.58983937e-13 54.5440395,-1.58983937e-13 C54.9766504,-1.58983937e-13 55.2880643,0.0772755418 55.4787528,0.231779449 C55.6692525,0.386283355 55.7645496,0.628441692 55.7645496,0.957924222 C55.7645496,1.28764264 55.6692525,1.52956509 55.4787528,1.684069 C55.2880643,1.8385729 54.9766504,1.91580127 54.5440395,1.91580127 C54.1114286,1.91580127 53.799826,1.8385729 53.6093734,1.684069 C53.4186378,1.52956509 53.3235294,1.28764264 53.3235294,0.957924222 Z M55.5328173,10.5985434 C55.5328173,10.8974082 55.450258,11.0929087 55.2856583,11.1856111 C55.1207755,11.2783134 54.873522,11.324641 54.5440395,11.324641 C54.2142739,11.324641 53.9697567,11.2783134 53.8101577,11.1856111 C53.65037,11.0929087 53.5706885,10.8974082 53.5706885,10.5985434 L53.5706885,3.30624208 C53.5706885,3.00766033 53.65037,2.81187675 53.8101577,2.71917441 C53.9697567,2.62647206 54.2142739,2.58014448 54.5440395,2.58014448 C54.873522,2.58014448 55.1207755,2.62647206 55.2856583,2.71917441 C55.450258,2.81187675 55.5328173,3.00766033 55.5328173,3.30624208 L55.5328173,10.5985434 Z" id="Shape"></path>
            <path d="M64.4835117,4.74305764 L71.8375674,4.74305764 C72.3010792,4.74305764 72.6873153,4.72248857 72.996276,4.6812089 C73.3052838,4.6402123 73.5548961,4.56534277 73.7456317,4.45721362 C73.9360843,4.3490373 74.0700663,4.19458057 74.1472947,3.99374908 C74.2245231,3.79287041 74.263208,3.52783134 74.263208,3.19806575 C74.263208,2.93033761 74.2323072,2.69860534 74.1705057,2.50286894 C74.1086569,2.30732124 73.9927908,2.14748636 73.8228601,2.02388324 C73.6528822,1.90028011 73.4134601,1.81026684 73.1044523,1.75351319 C72.7954445,1.69704261 72.3988294,1.66854784 71.914843,1.66854784 L64.4835117,1.66854784 L64.4835117,4.74305764 Z M74.2786348,8.06472652 C74.2786348,7.7660976 74.247734,7.51384343 74.1859325,7.30768097 C74.1241309,7.10180156 74.0005278,6.93187085 73.8151703,6.79788884 C73.6297184,6.66414271 73.3694914,6.56875129 73.0349609,6.51204482 C72.7001003,6.45557423 72.2648474,6.42703229 71.7294383,6.42703229 L64.4371841,6.42703229 L64.4371841,9.53249005 L71.9457438,9.53249005 C72.4502521,9.53249005 72.8572461,9.50423117 73.1662539,9.44747752 C73.4752617,9.39095975 73.7120419,9.3033525 73.8769247,9.18479729 C74.0415716,9.06657231 74.1497479,8.91447442 74.2013593,8.72906973 C74.252782,8.54371222 74.2786348,8.32231166 74.2786348,8.06472652 Z M76.3797936,8.00297214 C76.3797936,8.66217308 76.2484535,9.20027127 75.9858204,9.61740823 C75.7231874,10.0345452 75.3805897,10.359027 74.9584048,10.5907593 C74.5359369,10.8224915 74.0493086,10.9823264 73.4984255,11.0696978 C72.9473065,11.1573522 72.3884977,11.2010379 71.8221406,11.2010379 L63.0930237,11.2010379 C62.6191331,11.2010379 62.3823529,10.9591626 62.3823529,10.4748931 L62.3823529,0.710670795 C62.3823529,0.23701607 62.6191331,7.54951657e-14 63.0930237,7.54951657e-14 L71.6985375,7.54951657e-14 C72.3679286,7.54951657e-14 72.9808492,0.0463275837 73.5370161,0.139029928 C74.0932301,0.231732272 74.5721687,0.399256966 74.9738316,0.641179419 C75.3755418,0.883290579 75.6870028,1.21036709 75.9085921,1.62222026 C76.1299455,2.03426213 76.2407637,2.56462332 76.2407637,3.21353973 C76.2407637,3.75956361 76.1403243,4.23317116 75.9394457,4.63488132 C75.7386142,5.03659148 75.3651629,5.37140498 74.8193749,5.63913313 C75.2929825,5.81439481 75.6714816,6.07943388 75.9549197,6.43476928 C76.2380746,6.79015185 76.3797936,7.31301194 76.3797936,8.00297214 Z" id="Shape"></path>
            <path d="M88.8754356,2.47058824 C89.2049182,2.47058824 89.4494825,2.51691582 89.6093174,2.60961816 C89.7688221,2.70232051 89.8487867,2.89810408 89.8487867,3.19673301 L89.8487867,8.57318591 C89.8487867,10.365384 88.3911662,11.2614595 85.4764912,11.2614595 L81.784013,11.2614595 C78.869055,11.2614595 77.4117647,10.365384 77.4117647,8.57318591 L77.4117647,3.19673301 C77.4117647,2.89810408 77.4940882,2.70232051 77.6589238,2.60961816 C77.8235707,2.51691582 78.0707769,2.47058824 78.4005425,2.47058824 C78.7300251,2.47058824 78.9745894,2.51691582 79.1344243,2.60961816 C79.2939289,2.70232051 79.3738936,2.89810408 79.3738936,3.19673301 L79.3738936,8.57318591 C79.3738936,8.89257261 79.5693941,9.16030075 79.9609612,9.37660622 C80.3522453,9.59291169 80.9806398,9.70104084 81.8458145,9.70104084 L85.4147368,9.70104084 C86.2798644,9.70104084 86.908023,9.59291169 87.2995902,9.37660622 C87.6908742,9.16030075 87.8866578,8.89257261 87.8866578,8.57318591 L87.8866578,3.19673301 C87.8866578,2.89810408 87.9689813,2.70232051 88.1338169,2.60961816 C88.298511,2.51691582 88.5456701,2.47058824 88.8754356,2.47058824 Z" id="Fill-26"></path>
            <path d="M96.4124045,2.47058824 C96.6492319,2.47058824 96.8010467,2.53772077 96.8681793,2.6714669 C96.9350287,2.80544892 96.9686186,3.00118532 96.9686186,3.25853457 C96.9686186,3.51607253 96.9350287,3.70921421 96.8681793,3.83786525 C96.8010467,3.96679935 96.6492319,4.03100693 96.4124045,4.03100693 L95.2073212,4.03100693 C94.4449919,4.03100693 93.9146307,4.12899307 93.6160489,4.32454076 C93.3171841,4.52032434 93.1680112,4.79333628 93.1680112,5.14338788 L93.1680112,10.5353148 C93.1680112,10.8341796 93.0854519,11.0297273 92.9207578,11.1224296 C92.755875,11.2150848 92.5087159,11.2614595 92.1792334,11.2614595 C91.8494206,11.2614595 91.6049034,11.2150848 91.4453516,11.1224296 C91.2855167,11.0297273 91.2058824,10.8341796 91.2058824,10.5353148 L91.2058824,5.14338788 C91.2058824,4.2473124 91.548197,3.57792127 92.2332508,3.13493145 C92.9181631,2.6921775 93.9095356,2.47058824 95.2073212,2.47058824 L96.4124045,2.47058824 Z" id="Fill-28"></path>
            <path d="M103.00064,2.47058824 C103.237467,2.47058824 103.389282,2.53772077 103.456415,2.6714669 C103.523264,2.80544892 103.556854,3.00118532 103.556854,3.25853457 C103.556854,3.51607253 103.523264,3.70921421 103.456415,3.83786525 C103.389282,3.96679935 103.237467,4.03100693 103.00064,4.03100693 L101.795557,4.03100693 C101.033227,4.03100693 100.502866,4.12899307 100.204284,4.32454076 C99.9054194,4.52032434 99.7562465,4.79333628 99.7562465,5.14338788 L99.7562465,10.5353148 C99.7562465,10.8341796 99.6736872,11.0297273 99.5089931,11.1224296 C99.3441103,11.2150848 99.0969512,11.2614595 98.7674687,11.2614595 C98.4376559,11.2614595 98.1931387,11.2150848 98.0335869,11.1224296 C97.873752,11.0297273 97.7941176,10.8341796 97.7941176,10.5353148 L97.7941176,5.14338788 C97.7941176,4.2473124 98.1364323,3.57792127 98.8214861,3.13493145 C99.5063983,2.6921775 100.497771,2.47058824 101.795557,2.47058824 L103.00064,2.47058824 Z" id="Fill-30"></path>
            <path d="M104.382353,0.957924222 C104.382353,0.628441692 104.477461,0.386283355 104.668197,0.231779449 C104.85865,0.0772755418 105.170252,-1.58983937e-13 105.602863,-1.58983937e-13 C106.035474,-1.58983937e-13 106.346888,0.0772755418 106.537576,0.231779449 C106.728076,0.386283355 106.823373,0.628441692 106.823373,0.957924222 C106.823373,1.28764264 106.728076,1.52956509 106.537576,1.684069 C106.346888,1.8385729 106.035474,1.91580127 105.602863,1.91580127 C105.170252,1.91580127 104.85865,1.8385729 104.668197,1.684069 C104.477461,1.52956509 104.382353,1.28764264 104.382353,0.957924222 Z M106.591641,10.5985434 C106.591641,10.8974082 106.509082,11.0929087 106.344482,11.1856111 C106.179599,11.2783134 105.932346,11.324641 105.602863,11.324641 C105.273097,11.324641 105.02858,11.2783134 104.868981,11.1856111 C104.709194,11.0929087 104.629512,10.8974082 104.629512,10.5985434 L104.629512,3.30624208 C104.629512,3.00766033 104.709194,2.81187675 104.868981,2.71917441 C105.02858,2.62647206 105.273097,2.58014448 105.602863,2.58014448 C105.932346,2.58014448 106.179599,2.62647206 106.344482,2.71917441 C106.509082,2.81187675 106.591641,3.00766033 106.591641,3.30624208 L106.591641,10.5985434 Z" id="Shape"></path>
            <path d="M109.113286,2.53376972 L109.113286,0.72619195 C109.113286,0.427515848 109.192921,0.231779449 109.352755,0.139077105 C109.512354,0.0463275837 109.756872,-1.58983937e-13 110.086637,-1.58983937e-13 C110.41612,-1.58983937e-13 110.663326,0.0463275837 110.828256,0.139077105 C110.992856,0.231779449 111.075415,0.427515848 111.075415,0.72619195 L111.075415,2.53376972 L114.335282,2.53376972 C114.57211,2.53376972 114.723972,2.60090226 114.791104,2.73464839 C114.857954,2.8686304 114.891449,3.0643668 114.891449,3.32171605 C114.891449,3.57925402 114.857954,3.7723957 114.791104,3.90104673 C114.723972,4.02998083 114.57211,4.09418841 114.335282,4.09418841 L111.075415,4.09418841 L111.075415,10.5984962 C111.075415,10.897361 110.992856,11.0929087 110.828256,11.1856111 C110.663326,11.2782663 110.41612,11.324641 110.086637,11.324641 C109.756872,11.324641 109.512354,11.2782663 109.352755,11.1856111 C109.192921,11.0929087 109.113286,10.897361 109.113286,10.5984962 L109.113286,4.09418841 L108.232685,4.09418841 C107.995621,4.09418841 107.843759,4.02998083 107.77691,3.90104673 C107.709777,3.7723957 107.676471,3.57925402 107.676471,3.32171605 C107.676471,3.0643668 107.709777,2.8686304 107.77691,2.73464839 C107.843759,2.60090226 107.995621,2.53376972 108.232685,2.53376972 L109.113286,2.53376972 Z" id="Fill-34"></path>
            <path d="M125.650458,5.15881468 C125.650458,4.83966387 125.454675,4.57174701 125.063391,4.35544155 C124.671824,4.13913608 124.043665,4.03100693 123.178538,4.03100693 L119.93405,4.03100693 C119.068875,4.03100693 118.440528,4.13913608 118.049197,4.35544155 C117.657629,4.57174701 117.462129,4.83966387 117.462129,5.15881468 L117.462129,8.51138434 C117.462129,8.82039216 117.657629,9.08566711 118.049197,9.30706767 C118.440528,9.52865694 119.068875,9.63923927 119.93405,9.63923927 L123.178538,9.63923927 C124.043665,9.63923927 124.671824,9.52865694 125.063391,9.30706767 C125.454675,9.08566711 125.650458,8.82039216 125.650458,8.51138434 L125.650458,5.15881468 Z M115.5,5.15881468 C115.5,3.36666372 116.957337,2.47058824 119.872295,2.47058824 L123.240292,2.47058824 C126.154967,2.47058824 127.612587,3.36666372 127.612587,5.15881468 L127.612587,8.51138434 C127.612587,10.3035825 126.154967,11.199658 123.240292,11.199658 L119.872295,11.199658 C116.957337,11.199658 115.5,10.3035825 115.5,8.51138434 L115.5,5.15881468 Z" id="Shape"></path>
            <path d="M141.13121,1.66854784 L141.13121,10.5366947 C141.13121,10.8355595 141.043603,11.03106 140.868577,11.1237623 C140.693316,11.2164647 140.436014,11.2627923 140.096105,11.2627923 C139.766339,11.2627923 139.514085,11.2164647 139.339059,11.1237623 C139.163798,11.03106 139.076379,10.8355595 139.076379,10.5366947 L139.076379,1.66854784 L134.426071,1.66854784 C134.178865,1.66854784 134.016624,1.59900929 133.939396,1.45997936 C133.862167,1.32094943 133.823529,1.11238095 133.823529,0.834226743 C133.823529,0.556166888 133.862167,0.347598408 133.939396,0.20856848 C134.016624,0.0694913755 134.178865,-1.90070182e-13 134.426071,-1.90070182e-13 L145.79704,-1.90070182e-13 C146.044246,-1.90070182e-13 146.20644,0.0694913755 146.283715,0.20856848 C146.360944,0.347598408 146.399581,0.556166888 146.399581,0.834226743 C146.399581,1.11238095 146.360944,1.32094943 146.283715,1.45997936 C146.20644,1.59900929 146.044246,1.66854784 145.79704,1.66854784 L141.13121,1.66854784 Z" id="Fill-38"></path>
            <path d="M157.356341,5.15881468 C157.356341,4.83966387 157.160557,4.57174701 156.769273,4.35544155 C156.377706,4.13913608 155.749547,4.03100693 154.88442,4.03100693 L151.639932,4.03100693 C150.774757,4.03100693 150.14641,4.13913608 149.755079,4.35544155 C149.363512,4.57174701 149.168011,4.83966387 149.168011,5.15881468 L149.168011,8.51138434 C149.168011,8.82039216 149.363512,9.08566711 149.755079,9.30706767 C150.14641,9.52865694 150.774757,9.63923927 151.639932,9.63923927 L154.88442,9.63923927 C155.749547,9.63923927 156.377706,9.52865694 156.769273,9.30706767 C157.160557,9.08566711 157.356341,8.82039216 157.356341,8.51138434 L157.356341,5.15881468 Z M147.205882,5.15881468 C147.205882,3.36666372 148.66322,2.47058824 151.578178,2.47058824 L154.946174,2.47058824 C157.860849,2.47058824 159.31847,3.36666372 159.31847,5.15881468 L159.31847,8.51138434 C159.31847,10.3035825 157.860849,11.199658 154.946174,11.199658 L151.578178,11.199658 C148.66322,11.199658 147.205882,10.3035825 147.205882,8.51138434 L147.205882,5.15881468 Z" id="Shape"></path>
            <path d="M162.550364,5.97904172 L168.884788,2.64189886 C169.018487,2.5699543 169.170538,2.52362671 169.340516,2.50282176 C169.510447,2.48234704 169.755011,2.47196816 170.074351,2.47196816 C170.280324,2.47196816 170.457945,2.51834292 170.607354,2.61099808 C170.756574,2.70370043 170.831396,2.84806133 170.831396,3.04356185 C170.831396,3.18796992 170.790116,3.30114699 170.707793,3.38347044 C170.625234,3.46602978 170.522388,3.53797435 170.398785,3.59977591 L164.188058,6.8596904 L170.506962,10.0577562 C170.805543,10.2122601 170.954999,10.4285184 170.954999,10.7066726 C170.954999,10.9333569 170.864703,11.0928616 170.684629,11.1855639 C170.50432,11.2782663 170.23395,11.324641 169.873566,11.324641 C169.543754,11.324641 169.28381,11.2988353 169.09331,11.2474126 C168.902574,11.19599 168.766233,11.1445673 168.68391,11.0928616 L162.550364,7.84846823 L162.550364,10.5984962 C162.550364,10.897361 162.467805,11.0928616 162.303205,11.1855639 C162.138322,11.2782663 161.891069,11.324641 161.561586,11.324641 C161.231821,11.324641 160.987304,11.2782663 160.827705,11.1855639 C160.667917,11.0928616 160.588235,10.897361 160.588235,10.5984962 L160.588235,0.726144774 C160.588235,0.427515848 160.667917,0.231779449 160.827705,0.139077105 C160.987304,0.0463275837 161.231821,-1.58983937e-13 161.561586,-1.58983937e-13 C161.891069,-1.58983937e-13 162.138322,0.0463275837 162.303205,0.139077105 C162.467805,0.231779449 162.550364,0.427515848 162.550364,0.726144774 L162.550364,5.97904172 Z" id="Fill-42"></path>
            <path d="M182.154926,9.48473537 L182.154926,3.19673301 C182.154926,2.89810408 182.23456,2.70232051 182.394348,2.60966534 C182.553947,2.516963 182.798511,2.47058824 183.128229,2.47058824 C183.457759,2.47058824 183.704918,2.516963 183.869848,2.60966534 C184.034448,2.70232051 184.117007,2.89810408 184.117007,3.19673301 L184.117007,11.1224296 C184.117007,12.0185051 183.774457,12.6878962 183.089592,13.130886 C182.404538,13.5735928 181.413307,13.7952292 180.115521,13.7952292 L177.983462,13.7952292 C177.746446,13.7952292 177.594584,13.7280967 177.527734,13.5943506 C177.460602,13.4603686 177.427295,13.2646322 177.427295,13.0072829 C177.427295,12.7496978 177.460602,12.5565561 177.527734,12.4279522 C177.594584,12.2990181 177.746446,12.2348106 177.983462,12.2348106 L180.115521,12.2348106 C180.877662,12.2348106 181.408023,12.1394191 181.706888,11.9489665 C182.00547,11.7582309 182.154926,11.4828601 182.154926,11.1224296 L182.154926,11.0451541 L176.284013,11.0451541 C173.369102,11.0451541 171.911765,10.1490786 171.911765,8.35692761 L171.911765,3.19673301 C171.911765,2.89810408 171.991399,2.70232051 172.151234,2.60966534 C172.310786,2.516963 172.55535,2.47058824 172.885116,2.47058824 C173.214598,2.47058824 173.461757,2.516963 173.626687,2.60966534 C173.791334,2.70232051 173.873894,2.89810408 173.873894,3.19673301 L173.873894,8.37235442 C173.873894,8.69174112 174.069394,8.95701607 174.460961,9.16803774 C174.852245,9.3792953 175.48064,9.48473537 176.345815,9.48473537 L182.154926,9.48473537 Z" id="Fill-44"></path>
            <path d="M195.650458,5.15881468 C195.650458,4.83966387 195.454675,4.57174701 195.063391,4.35544155 C194.671824,4.13913608 194.043665,4.03100693 193.178538,4.03100693 L189.93405,4.03100693 C189.068875,4.03100693 188.440528,4.13913608 188.049197,4.35544155 C187.657629,4.57174701 187.462129,4.83966387 187.462129,5.15881468 L187.462129,8.51138434 C187.462129,8.82039216 187.657629,9.08566711 188.049197,9.30706767 C188.440528,9.52865694 189.068875,9.63923927 189.93405,9.63923927 L193.178538,9.63923927 C194.043665,9.63923927 194.671824,9.52865694 195.063391,9.30706767 C195.454675,9.08566711 195.650458,8.82039216 195.650458,8.51138434 L195.650458,5.15881468 Z M185.5,5.15881468 C185.5,3.36666372 186.957337,2.47058824 189.872295,2.47058824 L193.240292,2.47058824 C196.154967,2.47058824 197.612587,3.36666372 197.612587,5.15881468 L197.612587,8.51138434 C197.612587,10.3035825 196.154967,11.199658 193.240292,11.199658 L189.872295,11.199658 C186.957337,11.199658 185.5,10.3035825 185.5,8.51138434 L185.5,5.15881468 Z" id="Shape"></path>
        </g>
    </g>
</svg>