<?xml version="1.0" encoding="UTF-8"?>
<svg width="133px" height="145px" viewBox="0 0 133 145" version="1.1" xmlns="http://www.w3.org/2000/svg" xmlns:xlink="http://www.w3.org/1999/xlink">
    <!-- Generator: Sketch 52.2 (67145) - http://www.bohemiancoding.com/sketch -->
    <title>logo</title>
    <desc>Created with Sketch.</desc>
    <g id="logo" stroke="none" stroke-width="1" fill="none" fill-rule="evenodd">
        <path d="M19,137.214232 C19,141.414212 16.1284413,145.071841 9.71265373,144.998928 C9.11037925,144.998928 8.50810477,144.962971 7.90485257,144.891057 L9.50048886,140.11077 C12.2293007,140.0019 13.9667061,138.879242 13.9667061,137.430973 C13.9667061,135.873834 12.8687285,135.258569 8.72026964,133.990085 C2.97812999,132.216205 0.674625637,130.043801 0.674625637,126.314259 C0.674625637,122.982241 3.04950342,119 9.42911542,119 C10.4928729,119 11.5214326,119.143828 12.512839,119.433482 L9.60706016,123.779288 L9.3587197,123.779288 C7.05423764,123.779288 5.67174394,124.720164 5.67174394,126.132476 C5.67174394,127.329046 6.66510575,128.124096 10.4928729,129.319667 C15.3130242,130.804892 19,132.542815 19,137.214232 Z M4.3244481,136.996492 C4.50239284,137.720627 4.9277003,138.517674 6.02567797,139.204853 L4.39582154,143.804356 C1.95054804,142.644742 0.391087326,140.798948 0,138.698458 L4.3244481,136.996492 Z" id="Fill-1" fill="#000000"></path>
        <path d="M22.0010084,144 L39,144 L39,139.464576 L22.0010084,139.464576 L22.0010084,144 Z M22,133.785444 L37.6467762,133.785444 L37.6467762,129.25002 L22,129.25002 L22,133.785444 Z M22,123.571873 L38.7801768,123.571873 L38.7801768,119 L22,119 L22,123.571873 Z" id="Fill-4" fill="#000000"></path>
        <path d="M50.4195366,135.4286 L46.8681441,135.4286 L46.8681441,144 L42,144 L42,130.893175 L51.3717581,130.893175 C53.788159,130.893175 55.3250425,129.357396 55.3250425,127.213807 C55.3250425,125.071203 53.788159,123.571873 51.3717581,123.571873 L42,123.571873 L42,119 L51.481824,119 C57.1921237,119 60.3769664,122.642919 60.3769664,127.213807 C60.3769664,130.571046 58.693665,133.428836 55.5088223,134.713413 L61,144 L55.5088223,144 L50.4195366,135.4286 Z" id="Fill-6" fill="#000000"></path>
        <path d="M85,119 L75.9363695,144 L71.0636305,144 L71.0636305,143.964536 L79.6983888,119 L85,119 Z M71.3502041,130.713886 L68.8421912,137.928797 L62,119 L67.3016112,119 L71.3502041,130.713886 Z" id="Fill-7" fill="#000000"></path>
        <path d="M101.005505,136.356569 C101.005505,134.571558 99.8203039,133.249547 97.5926007,133.249547 L92.7784629,133.249547 L92.7784629,139.463591 L97.5926007,139.463591 C99.8203039,139.463591 101.005505,138.141579 101.005505,136.356569 M106,136.356569 C106,140.750138 103.126184,144 97.5926007,144 L88,144 L88,128.714122 L97.0901784,128.714122 C98.958159,128.714122 99.747963,127.499488 99.747963,126.142013 C99.747963,124.785523 98.958159,123.570888 97.0901784,123.570888 L88,123.570888 L88,119 L96.9811715,119 C101.7963,119 104.634442,122.249862 104.634442,126.142013 C104.634442,127.963472 103.736622,129.606628 102.371064,130.821263 C104.563092,131.893057 106,133.74998 106,136.356569" id="Fill-8" fill="#000000"></path>
        <path d="M122.985579,131.999498 C122.985579,133.34746 121.880652,134.476454 120.517772,134.476454 C119.119348,134.476454 118.014421,133.34746 118.014421,131.999498 C118.014421,130.65254 119.119348,129.523546 120.517772,129.523546 C121.880652,129.523546 122.985579,130.65254 122.985579,131.999498 M127.993297,131.999498 C127.993297,127.337879 125.194418,123.842418 120.517772,123.842418 C115.805582,123.842418 113.007718,127.337879 113.007718,131.999498 C113.007718,136.661116 115.805582,140.156577 120.517772,140.156577 C125.194418,140.156577 127.993297,136.661116 127.993297,131.999498 M133,131.999498 C133,139.318872 127.919162,145 120.517772,145 C113.117399,145 108,139.318872 108,131.999498 C108,124.680124 113.117399,119 120.517772,119 C127.919162,119 133,124.680124 133,131.999498" id="Fill-9" fill="#000000"></path>
        <path d="M72.754059,63.8590275 L41.640654,83.0716027 C45.962211,84.4784778 57.407467,87.3885618 63.2444272,87.3885618 C75.7808538,87.3885618 86.5872535,83.2963816 86.5872535,74.857138 C86.5872535,69.9972978 81.1835522,66.6727777 72.754059,63.8590275 Z M50.0591152,57.7207572 C30.1733338,52.2217019 16.7733982,45.7011068 16.7733982,33.808898 C16.7733982,18.8470523 39.6257995,7 65.5631647,7 C85.881202,7 105.218389,10.969756 113,17.7472413 L102.707092,32.0748893 C93.2486092,25.7750592 73.4019415,23.4500024 62.3789123,23.4500024 C51.5725126,23.4500024 42.9263899,27.2862959 42.9263899,33.0402344 C42.9263899,41.0971532 56.110699,43.1432433 73.6185709,47.7461934 C95.0167468,53.3736938 111.047326,64.7039553 111.047326,78.8981409 C111.047326,95.5227483 62.7148885,123.899078 7,86.7493468 L50.0591152,57.7207572 Z" id="Fill-10" fill="#000000"></path>
        <path d="M67,30 C64.7934587,30 63,32.243487 63,35 C63,37.757515 64.7934587,40 67,40 C69.2055112,40 71,37.757515 71,35 C71,32.243487 69.2055112,30 67,30" id="Fill-11" fill="#000000"></path>
        <path d="M85.0010301,30 C82.7944888,30 81,32.243487 81,35 C81,37.757515 82.7944888,40 85.0010301,40 C87.2065413,40 89,37.757515 89,35 C89,32.243487 87.2065413,30 85.0010301,30" id="Fill-12" fill="#000000"></path>
        <path d="M74,0 C72.3505976,0 71,1.34975097 71,3.00033204 L71,5.99966796 C71,7.65024903 72.3505976,9 74,9 C75.6503984,9 77,7.65024903 77,5.99966796 L77,3.00033204 C77,1.34975097 75.6503984,0 74,0" id="Fill-13" fill="#000000"></path>
    </g>
</svg>