<?xml version="1.0" encoding="UTF-8"?>
<svg width="133px" height="26px" viewBox="0 0 133 26" version="1.1" xmlns="http://www.w3.org/2000/svg" xmlns:xlink="http://www.w3.org/1999/xlink">
    <!-- Generator: Sketch 52.2 (67145) - http://www.bohemiancoding.com/sketch -->
    <title>logo_text</title>
    <desc>Created with Sketch.</desc>
    <g id="logo_text" stroke="none" stroke-width="1" fill="none" fill-rule="evenodd">
        <path d="M19,18.2142318 C19,22.4142124 16.1284413,26.0718411 9.71265373,25.9989282 C9.11037925,25.9989282 8.50810477,25.9629712 7.90485257,25.8910571 L9.50048886,21.1107701 C12.2293007,21.0019002 13.9667061,19.879242 13.9667061,18.4309728 C13.9667061,16.8738338 12.8687285,16.2585691 8.72026964,14.9900851 C2.97812999,13.2162051 0.674625637,11.0438013 0.674625637,7.3142586 C0.674625637,3.98224075 3.04950342,0 9.42911542,0 C10.4928729,0 11.5214326,0.143828108 12.512839,0.433481938 L9.60706016,4.77928818 L9.3587197,4.77928818 C7.05423764,4.77928818 5.67174394,5.72016373 5.67174394,7.13247585 C5.67174394,8.3290458 6.66510575,9.12409563 10.4928729,10.3196668 C15.3130242,11.8048918 19,13.5428147 19,18.2142318 Z M4.3244481,17.9964921 C4.50239284,18.7206266 4.9277003,19.5176741 6.02567797,20.2048528 L4.39582154,24.8043559 C1.95054804,23.6447417 0.391087326,21.7989477 0,19.698458 L4.3244481,17.9964921 Z" id="Fill-1" fill="#000000"></path>
        <path d="M22.0010084,25 L39,25 L39,20.4645756 L22.0010084,20.4645756 L22.0010084,25 Z M22,14.7854441 L37.6467762,14.7854441 L37.6467762,10.2500197 L22,10.2500197 L22,14.7854441 Z M22,4.57187328 L38.7801768,4.57187328 L38.7801768,0 L22,0 L22,4.57187328 Z" id="Fill-4" fill="#000000"></path>
        <path d="M50.4195366,16.4285996 L46.8681441,16.4285996 L46.8681441,25 L42,25 L42,11.8931752 L51.3717581,11.8931752 C53.788159,11.8931752 55.3250425,10.3573962 55.3250425,8.21380723 C55.3250425,6.0712034 53.788159,4.57187328 51.3717581,4.57187328 L42,4.57187328 L42,0 L51.481824,0 C57.1921237,0 60.3769664,3.64291906 60.3769664,8.21380723 C60.3769664,11.5710458 58.693665,14.428836 55.5088223,15.7134132 L61,25 L55.5088223,25 L50.4195366,16.4285996 Z" id="Fill-6" fill="#000000"></path>
        <path d="M85,0 L75.9363695,25 L71.0636305,25 L71.0636305,24.9645362 L79.6983888,0 L85,0 Z M71.3502041,11.713886 L68.8421912,18.9287966 L62,0 L67.3016112,0 L71.3502041,11.713886 Z" id="Fill-7" fill="#000000"></path>
        <path d="M101.005505,17.3565687 C101.005505,15.571558 99.8203039,14.2495469 97.5926007,14.2495469 L92.7784629,14.2495469 L92.7784629,20.4635905 L97.5926007,20.4635905 C99.8203039,20.4635905 101.005505,19.1415793 101.005505,17.3565687 M106,17.3565687 C106,21.7501379 103.126184,25 97.5926007,25 L88,25 L88,9.71412247 L97.0901784,9.71412247 C98.958159,9.71412247 99.747963,8.49948775 99.747963,7.14201277 C99.747963,5.78552289 98.958159,4.57088817 97.0901784,4.57088817 L88,4.57088817 L88,0 L96.9811715,0 C101.7963,0 104.634442,3.24986209 104.634442,7.14201277 C104.634442,8.9634723 103.736622,10.6066278 102.371064,11.8212625 C104.563092,12.893057 106,14.7499803 106,17.3565687" id="Fill-8" fill="#000000"></path>
        <path d="M122.985579,12.9994978 C122.985579,14.3474599 121.880652,15.4764535 120.517772,15.4764535 C119.119348,15.4764535 118.014421,14.3474599 118.014421,12.9994978 C118.014421,11.6525401 119.119348,10.5235465 120.517772,10.5235465 C121.880652,10.5235465 122.985579,11.6525401 122.985579,12.9994978 M127.993297,12.9994978 C127.993297,8.33787908 125.194418,4.84241839 120.517772,4.84241839 C115.805582,4.84241839 113.007718,8.33787908 113.007718,12.9994978 C113.007718,17.6611165 115.805582,21.1565772 120.517772,21.1565772 C125.194418,21.1565772 127.993297,17.6611165 127.993297,12.9994978 M133,12.9994978 C133,20.3188719 127.919162,26 120.517772,26 C113.117399,26 108,20.3188719 108,12.9994978 C108,5.68012362 113.117399,0 120.517772,0 C127.919162,0 133,5.68012362 133,12.9994978" id="Fill-9" fill="#000000"></path>
    </g>
</svg>