<?xml version="1.0" encoding="UTF-8"?>
<svg width="64px" height="64px" viewBox="0 0 64 64" version="1.1" xmlns="http://www.w3.org/2000/svg" xmlns:xlink="http://www.w3.org/1999/xlink">
    <!-- Generator: Sketch 52.2 (67145) - http://www.bohemiancoding.com/sketch -->
    <title>pinterest</title>
    <desc>Created with Sketch.</desc>
    <g id="pinterest" stroke="none" stroke-width="1" fill="none" fill-rule="evenodd">
        <path d="M49.8749169,32.4374584 C49.8749169,35.5780763 49.0897621,38.484319 47.5194537,41.1561876 C45.9491453,43.8280563 43.8280563,45.9491453 41.1561876,47.5194537 C38.484319,49.0897621 35.5780763,49.8749169 32.4374584,49.8749169 C30.656213,49.8749169 28.9452789,49.6171046 27.3046582,49.1014812 C28.4296555,47.2264853 29.1327788,45.7030522 29.4140281,44.5311796 L30.5390255,40.382752 C30.8202748,40.9452506 31.3358982,41.4139999 32.0858968,41.7889986 C32.8358953,42.1639974 33.6562052,42.3514973 34.5468284,42.3514973 C36.2343244,42.3514973 37.7694766,41.87103 39.1522862,40.9100945 C40.5350957,39.9491589 41.6132178,38.6483808 42.3866535,37.00776 C43.1600891,35.3671393 43.5468069,33.5741748 43.5468069,31.6288666 C43.5468069,29.6835584 43.0780577,27.9374692 42.1405603,26.3905978 C41.2030629,24.8437265 39.9140027,23.6366978 38.273382,22.7695127 C36.6327613,21.9023277 34.8046406,21.4687346 32.7890201,21.4687346 C30.3984008,21.4687346 28.2890308,21.9609209 26.4609102,22.9452936 C24.8202894,23.882791 23.5429484,25.160132 22.6288881,26.7773157 C21.7148277,28.3944993 21.2577976,30.1405885 21.2577976,32.0155844 C21.2577976,33.3749558 21.5976402,34.7226092 22.2773264,36.0585435 C22.9570126,37.3944779 23.8124786,38.2968191 24.8437265,38.7655683 C25.1718511,38.906193 25.3593499,38.8358807 25.4062252,38.5546313 L25.8984115,36.585886 C25.9452868,36.3983861 25.8984115,36.2343244 25.7577869,36.0936997 C25.3827881,35.6249505 25.0781006,35.0272956 24.8437265,34.3007352 C24.6093524,33.5741748 24.4921649,32.8358953 24.4921649,32.0858968 C24.4921649,30.7733995 24.8085704,29.5429337 25.4413814,28.3944993 C26.0741923,27.2460649 26.9765336,26.3202855 28.1484062,25.6171622 C29.3671529,24.8671636 30.7733995,24.4921649 32.3671461,24.4921649 C34.5233913,24.4921649 36.2811996,25.160132 37.640571,26.4960663 C38.9999424,27.8320007 39.6796287,29.5312157 39.6796287,31.5937104 C39.6796287,33.9374545 39.1522862,35.8593256 38.0976012,37.3593217 C37.0429162,38.8593178 35.742138,39.6093163 34.1952667,39.6093163 C33.3046435,39.6093163 32.6015202,39.2929108 32.0858968,38.6600998 C31.5702734,38.0272888 31.4062105,37.2890094 31.5937104,36.4452614 C31.6874599,35.929638 31.8983969,35.1796394 32.2265214,34.1952667 C32.7421448,32.4608955 32.9999571,31.2538679 32.9999571,30.5741816 C32.9999571,29.8944954 32.8124572,29.3319967 32.4374584,28.8866856 C32.0624597,28.4413746 31.5233981,28.2187185 30.8202748,28.2187185 C29.9296515,28.2187185 29.1796541,28.6171554 28.5702801,29.4140281 C27.9609062,30.2109009 27.6562198,31.2187117 27.6562198,32.4374584 C27.6562198,33.4687063 27.8202816,34.3358914 28.1484062,35.0390147 L26.1796608,43.6874316 C25.8984115,44.8593042 25.8749744,46.523362 26.1093485,48.6796072 C22.7812318,47.4139852 20.0976441,45.3046152 18.0585865,42.3514973 C16.0195288,39.3983793 15,36.0936997 15,32.4374584 C15,29.2968406 15.7851547,26.3905978 17.3554631,23.7187292 C18.9257715,21.0468606 21.0468606,18.9257715 23.7187292,17.3554631 C26.3905978,15.7851547 29.2968406,15 32.4374584,15 C35.5780763,15 38.484319,15.7851547 41.1561876,17.3554631 C43.8280563,18.9257715 45.9491453,21.0468606 47.5194537,23.7187292 C49.0897621,26.3905978 49.8749169,29.2968406 49.8749169,32.4374584 Z" id="" fill="#000000"></path>
    </g>
</svg>