<?xml version="1.0" encoding="UTF-8"?>
<svg width="64px" height="64px" viewBox="0 0 64 64" version="1.1" xmlns="http://www.w3.org/2000/svg" xmlns:xlink="http://www.w3.org/1999/xlink">
    <!-- Generator: Sketch 52.2 (67145) - http://www.bohemiancoding.com/sketch -->
    <title>serving</title>
    <desc>Created with Sketch.</desc>
    <g id="serving" stroke="none" stroke-width="1" fill="none" fill-rule="evenodd">
        <path d="M48.25,44.5 L15.75,44.5 C15.06,44.49875 14.50125,43.94 14.5,43.25 C14.50125,42.56 15.06,42 15.75,42 L48.25,42 C48.94,42 49.49875,42.56 49.5,43.25 C49.49875,43.94 48.94,44.49875 48.25,44.5 L48.25,44.5 Z M32,27 C39.41625,26.99625 45.595,32.41875 46.7875,39.5 L17.2125,39.5 C18.405,32.41875 24.58375,26.99625 32,27 L32,27 Z M32,19.5 C33.375,19.5025 34.4975,20.625 34.5,22 C34.4975,23.375 33.375,24.4975 32,24.5 C30.625,24.4975 29.5025,23.375 29.5,22 C29.5025,20.625 30.625,19.5025 32,19.5 L32,19.5 Z M49.32625,39.67625 C48.35875,32.44625 42.985,26.62 35.9925,24.97875 C36.61625,24.145 36.99875,23.12125 37,22 C36.9975,19.24 34.76,17.0025 32,17 C29.24,17.0025 27.0025,19.24 27,22 C27.00125,23.12125 27.38375,24.145 28.0075,24.97875 C21.015,26.62 15.64125,32.44625 14.67375,39.67625 C13.13125,40.14125 12,41.555 12,43.25 C12.00125,45.32125 13.67875,47 15.75,47 L48.25,47 C50.32125,47 51.99875,45.32125 52,43.25 C52,41.555 50.86875,40.14125 49.32625,39.67625 L49.32625,39.67625 Z" id="Fill-85" fill="#000000"></path>
        <path d="M32,29.5 C31.31,29.5 30.75,30.06 30.75,30.75 C30.75,31.44 31.31,32 32,32 C35.4175,31.99875 38.4925,33.76 40.30375,36.44875 C40.69,37.02125 41.46625,37.1725 42.03875,36.78625 C42.61125,36.40125 42.76375,35.62375 42.3775,35.05125 C40.12125,31.70125 36.2875,29.50125 32,29.5" id="Fill-86" fill="#000000"></path>
    </g>
</svg>