<?xml version="1.0" encoding="UTF-8"?>
<svg width="64px" height="64px" viewBox="0 0 64 64" version="1.1" xmlns="http://www.w3.org/2000/svg" xmlns:xlink="http://www.w3.org/1999/xlink">
    <!-- Generator: Sketch 52.2 (67145) - http://www.bohemiancoding.com/sketch -->
    <title>sp_check</title>
    <desc>Created with Sketch.</desc>
    <g id="sp_check" stroke="none" stroke-width="1" fill="none" fill-rule="evenodd">
        <g id="Group-3" transform="translate(20.000000, 12.000000)" fill="#000000">
            <path d="M20.9999505,0.444526037 C22.0184662,0.444526037 22.8842056,0.801007057 23.5971665,1.51396793 C24.3101274,2.22692881 24.6666084,3.09266826 24.6666084,4.11118396 L24.6666084,35.888886 C24.6666084,36.9074017 24.3101274,37.7731411 23.5971665,38.486102 C22.8842056,39.1990629 22.0184662,39.5555439 20.9999505,39.5555439 L3.88888015,39.5555439 C2.87036445,39.5555439 2.00462499,39.1990629 1.29166412,38.486102 C0.578703242,37.7731411 0.222222222,36.9074017 0.222222222,35.888886 L0.222222222,4.11118396 C0.222222222,3.09266826 0.578703242,2.22692881 1.29166412,1.51396793 C2.00462499,0.801007057 2.87036445,0.444526037 3.88888015,0.444526037 L20.9999505,0.444526037 Z M12.4444153,37.1111053 C13.1064512,37.1111053 13.6793665,36.8692073 14.1631612,36.3854126 C14.646956,35.9016178 14.8888539,35.3287025 14.8888539,34.6666667 C14.8888539,34.0046308 14.646956,33.4317155 14.1631612,32.9479208 C13.6793665,32.464126 13.1064512,32.2222281 12.4444153,32.2222281 C11.7823795,32.2222281 11.2094642,32.464126 10.7256694,32.9479208 C10.2418746,33.4317155 9.99997669,34.0046308 9.99997669,34.6666667 C9.99997669,35.3287025 10.2418746,35.9016178 10.7256694,36.3854126 C11.2094642,36.8692073 11.7823795,37.1111053 12.4444153,37.1111053 Z M20.9999505,28.861125 L20.9999505,5.02784844 C20.9999505,4.77321981 20.9108299,4.55678436 20.73259,4.37854443 C20.5543501,4.20030451 20.3379146,4.11118396 20.083286,4.11118396 L4.80554463,4.11118396 C4.55091599,4.11118396 4.33448055,4.20030451 4.15624062,4.37854443 C3.97800069,4.55678436 3.88888015,4.77321981 3.88888015,5.02784844 L3.88888015,28.861125 C3.88888015,29.1157536 3.97800069,29.332189 4.15624062,29.510429 C4.33448055,29.6886689 4.55091599,29.7777894 4.80554463,29.7777894 L20.083286,29.7777894 C20.3379146,29.7777894 20.5543501,29.6886689 20.73259,29.510429 C20.9108299,29.332189 20.9999505,29.1157536 20.9999505,28.861125 Z" id=""></path>
            <path d="M11.1805469,22.0347227 L7.70138854,18.5763976 C7.60416644,18.4791755 7.55555556,18.3541758 7.55555556,18.2013985 C7.55555556,18.0486212 7.60416644,17.9236215 7.70138854,17.8263994 L8.47222004,17.0764012 C8.56944213,16.9652904 8.69096952,16.9097349 8.8368025,16.9097349 C8.98263549,16.9097349 9.11110751,16.9652904 9.22221825,17.0764012 L11.555546,19.4097289 L16.5555341,14.4097408 C16.6666448,14.2986301 16.7951169,14.2430746 16.9409498,14.2430746 C17.0867828,14.2430746 17.2083102,14.2986301 17.3055323,14.4097408 L18.0763638,15.1597391 C18.1735859,15.2569612 18.2221968,15.3819609 18.2221968,15.5347382 C18.2221968,15.6875155 18.1735859,15.8125152 18.0763638,15.9097373 L11.9305451,22.0347227 C11.833323,22.1458334 11.7083233,22.2013889 11.555546,22.2013889 C11.4027687,22.2013889 11.277769,22.1458334 11.1805469,22.0347227 Z" id=""></path>
        </g>
    </g>
</svg>