<?xml version="1.0" encoding="UTF-8"?>
<svg width="64px" height="64px" viewBox="0 0 64 64" version="1.1" xmlns="http://www.w3.org/2000/svg" xmlns:xlink="http://www.w3.org/1999/xlink">
    <!-- Generator: Sketch 52.2 (67145) - http://www.bohemiancoding.com/sketch -->
    <title>twitter</title>
    <desc>Created with Sketch.</desc>
    <g id="twitter" stroke="none" stroke-width="1" fill="none" fill-rule="evenodd">
        <path d="M46.2733606,24.3124826 C46.3202358,24.4999825 46.3436729,24.8046689 46.3436729,25.2265429 C46.3436729,28.6015348 45.523362,31.8593392 43.8827413,34.9999571 C42.1952453,38.3280738 39.8280631,40.9765053 36.7811957,42.9452506 C33.453079,45.14837 29.6327749,46.2499303 25.3202855,46.2499303 C21.195295,46.2499303 17.4218672,45.14837 14,42.9452506 C14.5156234,42.9921259 15.1015602,43.015563 15.7578083,43.015563 C19.1796755,43.015563 22.24998,41.960878 24.9687238,39.851508 C23.3281031,39.851508 21.8867003,39.3710408 20.6445154,38.4101052 C19.4023305,37.4491696 18.5468645,36.242142 18.0781153,34.7890201 C18.5468645,34.8358953 18.9921756,34.8593324 19.4140496,34.8593324 C20.0702977,34.8593324 20.7265468,34.7890201 21.3827949,34.6483954 C19.6952989,34.2733967 18.2890523,33.4062105 17.164055,32.0468391 C16.0390576,30.6874677 15.476559,29.1405964 15.476559,27.4062252 L15.476559,27.2656005 C16.5078069,27.8749744 17.609366,28.2030979 18.7812386,28.2499732 C17.7968659,27.5468499 16.9999932,26.6562266 16.3906193,25.5781045 C15.7812454,24.4999825 15.476559,23.3163908 15.476559,22.0273318 C15.476559,20.7382727 15.8281206,19.5078069 16.531244,18.3359343 C18.3593646,20.6328042 20.5976402,22.4609248 23.2460717,23.8202962 C25.8945032,25.1796676 28.7187146,25.9296662 31.7187078,26.0702909 C31.6249583,25.5077922 31.5780831,24.9452936 31.5780831,24.3827949 C31.5780831,23.0702977 31.9062077,21.8398319 32.5624557,20.6913974 C33.2187038,19.542963 34.1093271,18.6406207 35.2343244,17.9843727 C36.3593217,17.3281246 37.5780684,17 38.8905657,17 C39.9686877,17 40.9647795,17.210937 41.8788398,17.632811 C42.7929001,18.054685 43.6014919,18.6171836 44.3046152,19.320307 C45.9921112,18.9921824 47.5624196,18.4062466 49.0155415,17.5624987 C48.4530429,19.2968699 47.3749208,20.6562413 45.7811742,21.6406139 C47.1874209,21.453114 48.5936675,21.0546782 49.9999142,20.4453043 C48.9686663,21.9453004 47.7264824,23.2343605 46.2733606,24.3124826 Z" id="" fill="#000000"></path>
    </g>
</svg>